<svg xmlns="http://www.w3.org/2000/svg" viewBox="0 0 62.35 23.38"><defs><style>.cls-1{fill:#ff009e;}.cls-2{fill:#c60285;}.cls-3{fill:#f26d0a;}.cls-4{fill:#ffb600;}.cls-5{fill:#fc63d1;}</style></defs><g id="Layer_2" data-name="Layer 2"><g id="spoon-of-sugar"><rect class="cls-1" x="60.4" y="1.95" width="1.95" height="1.95"/><rect class="cls-1" x="58.45" y="1.95" width="1.95" height="1.95"/><rect class="cls-1" x="58.45" width="1.95" height="1.95"/><rect class="cls-1" x="56.5" y="3.9" width="1.95" height="1.95"/><rect class="cls-1" x="56.5" y="1.95" width="1.95" height="1.95"/><rect class="cls-1" x="56.5" width="1.95" height="1.95"/><rect class="cls-1" x="54.56" y="3.9" width="1.95" height="1.95"/><rect class="cls-1" x="54.56" y="1.95" width="1.95" height="1.95"/><rect class="cls-1" x="54.56" width="1.95" height="1.95"/><rect class="cls-1" x="52.61" y="3.9" width="1.95" height="1.95"/><rect class="cls-1" x="52.61" y="1.95" width="1.95" height="1.95"/><rect class="cls-1" x="52.61" width="1.95" height="1.95"/><rect class="cls-2" x="50.66" y="5.85" width="1.95" height="1.95"/><rect class="cls-1" x="50.66" y="3.9" width="1.95" height="1.95"/><rect class="cls-1" x="50.66" y="1.95" width="1.95" height="1.95"/><rect class="cls-1" x="50.66" width="1.95" height="1.95"/><rect class="cls-2" x="48.71" y="5.85" width="1.95" height="1.95"/><rect class="cls-1" x="48.71" y="3.9" width="1.95" height="1.95"/><rect class="cls-1" x="48.71" y="1.95" width="1.95" height="1.95"/><rect class="cls-2" x="46.76" y="5.85" width="1.95" height="1.95"/><rect class="cls-1" x="46.76" y="3.9" width="1.95" height="1.95"/><rect class="cls-1" x="46.76" y="1.95" width="1.95" height="1.95"/><rect class="cls-2" x="44.81" y="5.85" width="1.95" height="1.95"/><rect class="cls-1" x="44.81" y="3.9" width="1.95" height="1.95"/><rect class="cls-1" x="44.81" y="1.95" width="1.95" height="1.95"/><rect class="cls-2" x="42.87" y="5.85" width="1.95" height="1.95"/><rect class="cls-1" x="42.87" y="3.9" width="1.95" height="1.95"/><rect class="cls-2" x="40.92" y="7.79" width="1.95" height="1.95"/><rect class="cls-1" x="40.92" y="5.85" width="1.95" height="1.95"/><rect class="cls-1" x="40.92" y="3.9" width="1.95" height="1.95"/><rect class="cls-2" x="38.97" y="7.79" width="1.95" height="1.95"/><rect class="cls-1" x="38.97" y="5.85" width="1.95" height="1.95"/><rect class="cls-1" x="37.02" y="7.79" width="1.95" height="1.95"/><rect class="cls-2" x="35.07" y="9.74" width="1.95" height="1.95"/><rect class="cls-1" x="35.07" y="7.79" width="1.95" height="1.95"/><rect class="cls-1" x="33.12" y="9.74" width="1.95" height="1.95"/><rect class="cls-2" x="31.17" y="11.69" width="1.95" height="1.95"/><rect class="cls-1" x="31.17" y="9.74" width="1.95" height="1.95"/><rect class="cls-2" x="29.23" y="13.64" width="1.95" height="1.95"/><rect class="cls-1" x="29.23" y="11.69" width="1.95" height="1.95"/><rect class="cls-2" x="27.28" y="15.59" width="1.95" height="1.95"/><rect class="cls-1" x="27.28" y="13.64" width="1.95" height="1.95"/><rect class="cls-1" x="27.28" y="11.69" width="1.95" height="1.95"/><rect class="cls-2" x="25.33" y="17.54" width="1.95" height="1.95"/><rect class="cls-1" x="25.33" y="15.59" width="1.95" height="1.95"/><rect class="cls-1" x="25.33" y="13.64" width="1.95" height="1.95"/><rect class="cls-1" x="25.33" y="11.69" width="1.95" height="1.95"/><rect class="cls-3" x="25.33" y="9.74" width="1.95" height="1.95"/><rect class="cls-2" x="23.38" y="19.48" width="1.95" height="1.95"/><rect class="cls-1" x="23.38" y="17.54" width="1.95" height="1.95"/><rect class="cls-1" x="23.38" y="15.59" width="1.95" height="1.95"/><rect class="cls-1" x="23.38" y="13.64" width="1.95" height="1.95"/><rect class="cls-1" x="23.38" y="11.69" width="1.95" height="1.95"/><rect class="cls-3" x="23.38" y="9.74" width="1.95" height="1.95"/><rect class="cls-3" x="23.38" y="7.79" width="1.95" height="1.95"/><rect class="cls-2" x="21.43" y="21.43" width="1.95" height="1.95"/><rect class="cls-1" x="21.43" y="19.48" width="1.95" height="1.95"/><rect class="cls-1" x="21.43" y="17.54" width="1.95" height="1.95"/><rect class="cls-1" x="21.43" y="15.59" width="1.95" height="1.95"/><rect class="cls-1" x="21.43" y="13.64" width="1.95" height="1.95"/><rect class="cls-1" x="21.43" y="11.69" width="1.95" height="1.95"/><rect class="cls-3" x="21.43" y="9.74" width="1.95" height="1.95"/><rect class="cls-3" x="21.43" y="7.79" width="1.95" height="1.95"/><rect class="cls-3" x="21.43" y="5.85" width="1.95" height="1.95"/><rect class="cls-1" x="19.48" y="21.43" width="1.95" height="1.95"/><rect class="cls-1" x="19.48" y="19.48" width="1.95" height="1.95"/><rect class="cls-1" x="19.48" y="17.54" width="1.95" height="1.95"/><rect class="cls-1" x="19.48" y="15.59" width="1.95" height="1.95"/><rect class="cls-1" x="19.48" y="13.64" width="1.95" height="1.95"/><rect class="cls-1" x="19.48" y="11.69" width="1.95" height="1.95"/><rect class="cls-4" x="19.48" y="9.74" width="1.95" height="1.95"/><rect class="cls-4" x="19.48" y="7.79" width="1.95" height="1.95"/><rect class="cls-3" x="19.48" y="5.85" width="1.95" height="1.95"/><rect class="cls-3" x="19.48" y="3.9" width="1.95" height="1.95"/><rect class="cls-1" x="17.54" y="21.43" width="1.95" height="1.95"/><rect class="cls-1" x="17.54" y="19.48" width="1.95" height="1.95"/><rect class="cls-1" x="17.54" y="17.54" width="1.95" height="1.95"/><rect class="cls-1" x="17.54" y="15.59" width="1.95" height="1.95"/><rect class="cls-1" x="17.54" y="13.64" width="1.95" height="1.95"/><rect class="cls-1" x="17.54" y="11.69" width="1.95" height="1.95"/><rect class="cls-4" x="17.54" y="9.74" width="1.95" height="1.95"/><rect class="cls-4" x="17.54" y="7.79" width="1.95" height="1.95"/><rect class="cls-4" x="17.54" y="5.85" width="1.95" height="1.95"/><rect class="cls-4" x="17.54" y="3.9" width="1.95" height="1.95"/><rect class="cls-3" x="17.54" y="1.95" width="1.95" height="1.95"/><rect class="cls-1" x="15.59" y="21.43" width="1.95" height="1.95"/><rect class="cls-1" x="15.59" y="19.48" width="1.95" height="1.95"/><rect class="cls-1" x="15.59" y="17.54" width="1.95" height="1.95"/><rect class="cls-1" x="15.59" y="15.59" width="1.95" height="1.95"/><rect class="cls-1" x="15.59" y="13.64" width="1.95" height="1.95"/><rect class="cls-1" x="15.59" y="11.69" width="1.95" height="1.95"/><rect class="cls-4" x="15.59" y="9.74" width="1.95" height="1.95"/><rect class="cls-4" x="15.59" y="7.79" width="1.95" height="1.95"/><rect class="cls-4" x="15.59" y="5.85" width="1.95" height="1.95"/><rect class="cls-4" x="15.59" y="3.9" width="1.95" height="1.95"/><rect class="cls-4" x="15.59" y="1.95" width="1.95" height="1.95"/><rect class="cls-4" x="15.59" width="1.95" height="1.95"/><rect class="cls-1" x="13.64" y="21.43" width="1.95" height="1.95"/><rect class="cls-5" x="13.64" y="19.48" width="1.95" height="1.95"/><rect class="cls-1" x="13.64" y="17.54" width="1.95" height="1.95"/><rect class="cls-1" x="13.64" y="15.59" width="1.95" height="1.95"/><rect class="cls-1" x="13.64" y="13.64" width="1.95" height="1.95"/><rect class="cls-1" x="13.64" y="11.69" width="1.95" height="1.95"/><rect class="cls-4" x="13.64" y="9.74" width="1.95" height="1.95"/><rect class="cls-4" x="13.64" y="7.79" width="1.95" height="1.95"/><rect class="cls-4" x="13.64" y="5.85" width="1.95" height="1.95"/><rect class="cls-4" x="13.64" y="3.9" width="1.95" height="1.95"/><rect class="cls-4" x="13.64" y="1.95" width="1.95" height="1.95"/><rect class="cls-4" x="13.64" width="1.95" height="1.95"/><rect class="cls-1" x="11.69" y="21.43" width="1.95" height="1.95"/><rect class="cls-5" x="11.69" y="19.48" width="1.95" height="1.95"/><rect class="cls-5" x="11.69" y="17.54" width="1.95" height="1.95"/><rect class="cls-1" x="11.69" y="15.59" width="1.95" height="1.95"/><rect class="cls-1" x="11.69" y="13.64" width="1.95" height="1.95"/><rect class="cls-1" x="11.69" y="11.69" width="1.95" height="1.95"/><rect class="cls-4" x="11.69" y="9.74" width="1.95" height="1.95"/><rect class="cls-4" x="11.69" y="7.79" width="1.95" height="1.95"/><rect class="cls-4" x="11.69" y="5.85" width="1.95" height="1.95"/><rect class="cls-4" x="11.69" y="3.9" width="1.95" height="1.95"/><rect class="cls-4" x="11.69" y="1.95" width="1.95" height="1.95"/><rect class="cls-1" x="9.74" y="21.43" width="1.95" height="1.95"/><rect class="cls-5" x="9.74" y="19.48" width="1.95" height="1.95"/><rect class="cls-5" x="9.74" y="17.54" width="1.95" height="1.95"/><rect class="cls-5" x="9.74" y="15.59" width="1.95" height="1.95"/><rect class="cls-1" x="9.74" y="13.64" width="1.95" height="1.95"/><rect class="cls-1" x="9.74" y="11.69" width="1.95" height="1.95"/><rect class="cls-4" x="9.74" y="9.74" width="1.95" height="1.95"/><rect class="cls-4" x="9.74" y="7.79" width="1.95" height="1.95"/><rect class="cls-4" x="9.74" y="5.85" width="1.95" height="1.95"/><rect class="cls-4" x="9.74" y="3.9" width="1.95" height="1.95"/><rect class="cls-1" x="7.79" y="19.48" width="1.95" height="1.95"/><rect class="cls-5" x="7.79" y="17.54" width="1.95" height="1.95"/><rect class="cls-5" x="7.79" y="15.59" width="1.95" height="1.95"/><rect class="cls-5" x="7.79" y="13.64" width="1.95" height="1.95"/><rect class="cls-1" x="7.79" y="11.69" width="1.95" height="1.95"/><rect class="cls-4" x="7.79" y="9.74" width="1.95" height="1.95"/><rect class="cls-4" x="7.79" y="7.79" width="1.95" height="1.95"/><rect class="cls-4" x="7.79" y="5.85" width="1.95" height="1.95"/><rect class="cls-1" x="5.85" y="17.54" width="1.95" height="1.95"/><rect class="cls-5" x="5.85" y="15.59" width="1.95" height="1.95"/><rect class="cls-5" x="5.85" y="13.64" width="1.95" height="1.95"/><rect class="cls-1" x="5.85" y="11.69" width="1.95" height="1.95"/><rect class="cls-4" x="5.85" y="9.74" width="1.95" height="1.95"/><rect class="cls-4" x="5.85" y="7.79" width="1.95" height="1.95"/><rect class="cls-1" x="3.9" y="15.59" width="1.95" height="1.95"/><rect class="cls-5" x="3.9" y="13.64" width="1.95" height="1.95"/><rect class="cls-1" x="3.9" y="11.69" width="1.95" height="1.95"/><rect class="cls-4" x="3.9" y="9.74" width="1.95" height="1.95"/><rect class="cls-1" x="1.95" y="13.64" width="1.95" height="1.95"/><rect class="cls-1" x="1.95" y="11.69" width="1.95" height="1.95"/><rect class="cls-1" y="11.69" width="1.95" height="1.95"/></g></g></svg>