<svg width="131" height="41" viewBox="0 0 131 41" fill="none" xmlns="http://www.w3.org/2000/svg">
<path d="M127.226 0H3.89591C1.74426 0 0 1.83563 0 4.1V36.9C0 39.1644 1.74426 41 3.89591 41H72.5613C74.713 41 76.4572 39.1644 76.4572 36.9V12.0437C76.4572 9.77938 78.2015 7.94375 80.3532 7.94375H127.226C129.31 7.94375 131 6.16548 131 3.97187C131 1.77827 129.31 0 127.226 0Z" fill="white"/>
<path d="M74.9963 2.5625C74.9963 3.55316 58.7529 4.35625 38.7156 4.35625C18.6784 4.35625 2.43494 3.55316 2.43494 2.5625C2.43494 1.57184 18.6784 0.76875 38.7156 0.76875C58.7529 0.76875 74.9963 1.57184 74.9963 2.5625Z" fill="#222222"/>
</svg>
