<svg width="171" height="57" viewBox="0 0 171 57" fill="none" xmlns="http://www.w3.org/2000/svg">
<path d="M8.56 38.2C5.94667 38.2 3.90667 37.4667 2.44 36C1 34.5067 0.28 32.5467 0.28 30.12C0.28 27.96 0.706667 26.0667 1.56 24.44C2.41333 22.8133 3.52 21.56 4.88 20.68C6.24 19.8 7.66667 19.36 9.16 19.36C10.6267 19.36 11.76 19.8 12.56 20.68C13.3867 21.5333 13.8 22.64 13.8 24C13.8 25.12 13.5467 26.0667 13.04 26.84C12.56 27.6133 11.92 28 11.12 28C10.6133 28 10.2 27.88 9.88 27.64C9.58667 27.4 9.44 27.0667 9.44 26.64C9.44 26.4533 9.46667 26.24 9.52 26C9.57333 25.76 9.61333 25.5867 9.64 25.48C9.77333 25.08 9.84 24.7067 9.84 24.36C9.84 24.0133 9.74667 23.7467 9.56 23.56C9.4 23.3733 9.16 23.28 8.84 23.28C8.22667 23.28 7.65333 23.56 7.12 24.12C6.58667 24.6533 6.16 25.3867 5.84 26.32C5.52 27.2533 5.36 28.28 5.36 29.4C5.36 32.4933 6.70667 34.04 9.4 34.04C10.4933 34.04 11.6667 33.68 12.92 32.96C14.2 32.2133 15.4533 31.1067 16.68 29.64C17 29.2667 17.36 29.08 17.76 29.08C18.1067 29.08 18.3733 29.24 18.56 29.56C18.7733 29.88 18.88 30.32 18.88 30.88C18.88 31.8933 18.6267 32.72 18.12 33.36C16.8667 34.9067 15.36 36.1067 13.6 36.96C11.8667 37.7867 10.1867 38.2 8.56 38.2ZM19.7266 38.2C18.5266 38.2 17.5399 37.6533 16.7666 36.56C16.0199 35.44 15.6466 34.0533 15.6466 32.4C15.6466 30.4 15.7799 28.5733 16.0466 26.92C16.3132 25.24 16.7532 23.4667 17.3666 21.6C17.6332 20.8 18.0066 20.2267 18.4866 19.88C18.9666 19.5333 19.7266 19.36 20.7666 19.36C21.3532 19.36 21.7532 19.4533 21.9666 19.64C22.2066 19.8267 22.3266 20.1067 22.3266 20.48C22.3266 20.6933 22.1799 21.4133 21.8866 22.64C21.6199 23.6267 21.4066 24.52 21.2466 25.32C20.7132 28.12 20.4466 29.9867 20.4466 30.92C20.4466 31.48 20.5132 31.88 20.6466 32.12C20.7799 32.3333 20.9932 32.44 21.2866 32.44C21.6866 32.44 22.1799 32.04 22.7666 31.24C23.3799 30.44 24.0199 29.2267 24.6866 27.6C25.3799 25.9733 26.0466 23.9733 26.6866 21.6C26.8999 20.8 27.2199 20.2267 27.6466 19.88C28.0999 19.5333 28.7666 19.36 29.6466 19.36C30.2599 19.36 30.6866 19.44 30.9266 19.6C31.1666 19.7333 31.2866 20 31.2866 20.4C31.2866 21.0667 30.9532 22.8933 30.2866 25.88C29.5399 29.2933 29.1666 31.4 29.1666 32.2C29.1666 32.7067 29.2732 33.1067 29.4866 33.4C29.6999 33.6667 29.9799 33.8 30.3266 33.8C30.8599 33.8 31.4866 33.48 32.2066 32.84C32.9532 32.1733 33.9399 31.1067 35.1666 29.64C35.4866 29.2667 35.8466 29.08 36.2466 29.08C36.5932 29.08 36.8599 29.24 37.0466 29.56C37.2599 29.88 37.3666 30.32 37.3666 30.88C37.3666 31.9467 37.1132 32.7733 36.6066 33.36C35.4599 34.7733 34.2199 35.9333 32.8866 36.84C31.5799 37.7467 30.0866 38.2 28.4066 38.2C27.1266 38.2 26.1799 37.7067 25.5666 36.72C24.9799 35.7333 24.6866 34.3467 24.6866 32.56C24.2332 34.3733 23.5532 35.7733 22.6466 36.76C21.7399 37.72 20.7666 38.2 19.7266 38.2ZM55.4831 29.08C55.8298 29.08 56.0965 29.24 56.2831 29.56C56.4965 29.88 56.6031 30.32 56.6031 30.88C56.6031 31.9467 56.3498 32.7733 55.8431 33.36C54.6965 34.7733 53.4565 35.9333 52.1231 36.84C50.8165 37.7467 49.3231 38.2 47.6431 38.2C46.2298 38.2 45.0831 37.6933 44.2031 36.68C42.6831 37.6667 41.0965 38.1733 39.4431 38.2C39.0965 43.3467 38.3098 47.64 37.0831 51.08C35.8565 54.5467 34.0565 56.28 31.6831 56.28C30.2431 56.28 29.1765 55.76 28.4831 54.72C27.7898 53.68 27.4431 52.24 27.4431 50.4C27.4431 47.7867 28.0431 44.7333 29.2431 41.24C30.4431 37.7733 32.2965 33.9467 34.8031 29.76C34.8031 25.8667 34.7765 23.16 34.7231 21.64C34.6965 20.8667 35.0031 20.2533 35.6431 19.8C36.2831 19.3467 37.0831 19.12 38.0431 19.12C38.6031 19.12 39.0031 19.24 39.2431 19.48C39.5098 19.6933 39.6565 20.1333 39.6831 20.8C39.6831 21.4667 39.6965 21.96 39.7231 22.28C40.5765 21.2133 41.4165 20.4533 42.2431 20C43.0698 19.52 43.9498 19.28 44.8831 19.28C46.3765 19.28 47.5898 19.88 48.5231 21.08C49.4831 22.28 49.9631 23.8533 49.9631 25.8C49.9631 27.2133 49.7365 28.5867 49.2831 29.92C48.8298 31.2533 48.2031 32.4667 47.4031 33.56C47.9631 33.72 48.4298 33.8 48.8031 33.8C49.6831 33.8 50.5231 33.48 51.3231 32.84C52.1231 32.2 53.1498 31.1333 54.4031 29.64C54.7231 29.2667 55.0831 29.08 55.4831 29.08ZM39.6431 34.36C40.6031 34.1467 41.4831 33.6267 42.2831 32.8C43.1098 31.9467 43.7631 30.9067 44.2431 29.68C44.7231 28.4267 44.9631 27.12 44.9631 25.76C44.9631 24.96 44.8031 24.36 44.4831 23.96C44.1631 23.5333 43.7365 23.32 43.2031 23.32C42.2431 23.32 41.0831 24.3333 39.7231 26.36C39.6965 27.5333 39.6831 29.2533 39.6831 31.52C39.6831 32.7467 39.6698 33.6933 39.6431 34.36ZM32.0031 52.36C32.7231 52.36 33.3231 50.7867 33.8031 47.64C34.2831 44.52 34.5898 40.6267 34.7231 35.96C33.5765 38.6267 32.6698 41.1733 32.0031 43.6C31.3365 46.0267 31.0031 48.0667 31.0031 49.72C31.0031 50.5733 31.1098 51.2267 31.3231 51.68C31.5098 52.1333 31.7365 52.36 32.0031 52.36ZM61.0209 38.2C58.4076 38.2 56.3676 37.4667 54.9009 36C53.4609 34.5067 52.7409 32.5467 52.7409 30.12C52.7409 27.96 53.1676 26.0667 54.0209 24.44C54.8743 22.8133 55.9809 21.56 57.3409 20.68C58.7009 19.8 60.1276 19.36 61.6209 19.36C63.0876 19.36 64.2209 19.8 65.0209 20.68C65.8476 21.5333 66.2609 22.64 66.2609 24C66.2609 25.12 66.0076 26.0667 65.5009 26.84C65.0209 27.6133 64.3809 28 63.5809 28C63.0743 28 62.6609 27.88 62.3409 27.64C62.0476 27.4 61.9009 27.0667 61.9009 26.64C61.9009 26.4533 61.9276 26.24 61.9809 26C62.0343 25.76 62.0743 25.5867 62.1009 25.48C62.2343 25.08 62.3009 24.7067 62.3009 24.36C62.3009 24.0133 62.2076 23.7467 62.0209 23.56C61.8609 23.3733 61.6209 23.28 61.3009 23.28C60.6876 23.28 60.1143 23.56 59.5809 24.12C59.0476 24.6533 58.6209 25.3867 58.3009 26.32C57.9809 27.2533 57.8209 28.28 57.8209 29.4C57.8209 32.4933 59.1676 34.04 61.8609 34.04C62.9543 34.04 64.1276 33.68 65.3809 32.96C66.6609 32.2133 67.9143 31.1067 69.1409 29.64C69.4609 29.2667 69.8209 29.08 70.2209 29.08C70.5676 29.08 70.8343 29.24 71.0209 29.56C71.2343 29.88 71.3409 30.32 71.3409 30.88C71.3409 31.8933 71.0876 32.72 70.5809 33.36C69.3276 34.9067 67.8209 36.1067 66.0609 36.96C64.3276 37.7867 62.6476 38.2 61.0209 38.2ZM72.1875 38.2C70.9875 38.2 70.0008 37.6533 69.2275 36.56C68.4808 35.44 68.1075 34.0533 68.1075 32.4C68.1075 30.4 68.2408 28.5733 68.5075 26.92C68.7742 25.24 69.2142 23.4667 69.8275 21.6C70.0942 20.8 70.4675 20.2267 70.9475 19.88C71.4275 19.5333 72.1875 19.36 73.2275 19.36C73.8142 19.36 74.2142 19.4533 74.4275 19.64C74.6675 19.8267 74.7875 20.1067 74.7875 20.48C74.7875 20.6933 74.6408 21.4133 74.3475 22.64C74.0808 23.6267 73.8675 24.52 73.7075 25.32C73.1742 28.12 72.9075 29.9867 72.9075 30.92C72.9075 31.48 72.9742 31.88 73.1075 32.12C73.2408 32.3333 73.4542 32.44 73.7475 32.44C74.1475 32.44 74.6408 32.04 75.2275 31.24C75.8408 30.44 76.4808 29.2267 77.1475 27.6C77.8408 25.9733 78.5075 23.9733 79.1475 21.6C79.3608 20.8 79.6808 20.2267 80.1075 19.88C80.5608 19.5333 81.2275 19.36 82.1075 19.36C82.7208 19.36 83.1475 19.44 83.3875 19.6C83.6275 19.7333 83.7475 20 83.7475 20.4C83.7475 21.0667 83.4142 22.8933 82.7475 25.88C82.0008 29.2933 81.6275 31.4 81.6275 32.2C81.6275 32.7067 81.7342 33.1067 81.9475 33.4C82.1608 33.6667 82.4408 33.8 82.7875 33.8C83.3208 33.8 83.9475 33.48 84.6675 32.84C85.4142 32.1733 86.4008 31.1067 87.6275 29.64C87.9475 29.2667 88.3075 29.08 88.7075 29.08C89.0542 29.08 89.3208 29.24 89.5075 29.56C89.7208 29.88 89.8275 30.32 89.8275 30.88C89.8275 31.9467 89.5742 32.7733 89.0675 33.36C87.9208 34.7733 86.6808 35.9333 85.3475 36.84C84.0408 37.7467 82.5475 38.2 80.8675 38.2C79.5875 38.2 78.6408 37.7067 78.0275 36.72C77.4408 35.7333 77.1475 34.3467 77.1475 32.56C76.6942 34.3733 76.0142 35.7733 75.1075 36.76C74.2008 37.72 73.2275 38.2 72.1875 38.2ZM101.744 29.08C102.091 29.08 102.357 29.24 102.544 29.56C102.757 29.88 102.864 30.32 102.864 30.88C102.864 31.9467 102.611 32.7733 102.104 33.36C100.957 34.7733 99.7041 35.9333 98.3441 36.84C97.0107 37.7467 95.4907 38.2 93.7841 38.2C91.4374 38.2 89.6907 37.1333 88.5441 35C87.4241 32.8667 86.8641 30.1067 86.8641 26.72C86.8641 23.4667 87.2774 19.76 88.1041 15.6C88.9574 11.44 90.1974 7.86667 91.8241 4.88C93.4774 1.89333 95.4374 0.399998 97.7041 0.399998C98.9841 0.399998 99.9841 0.999998 100.704 2.2C101.451 3.37333 101.824 5.06667 101.824 7.28C101.824 10.4533 100.944 14.1333 99.1841 18.32C97.4241 22.5067 95.0374 26.6533 92.0241 30.76C92.2107 31.8533 92.5174 32.64 92.9441 33.12C93.3707 33.5733 93.9307 33.8 94.6241 33.8C95.7174 33.8 96.6774 33.4933 97.5041 32.88C98.3307 32.24 99.3841 31.16 100.664 29.64C100.984 29.2667 101.344 29.08 101.744 29.08ZM96.8241 4.36C96.2107 4.36 95.5174 5.46667 94.7441 7.68C93.9707 9.89333 93.2907 12.64 92.7041 15.92C92.1174 19.2 91.7974 22.3467 91.7441 25.36C93.6374 22.24 95.1441 19.12 96.2641 16C97.3841 12.8533 97.9441 9.98666 97.9441 7.4C97.9441 5.37333 97.5707 4.36 96.8241 4.36ZM104.16 38.2C102.507 38.2 101.187 37.6 100.2 36.4C99.2136 35.2 98.7203 33.6267 98.7203 31.68C98.7203 29.5467 99.2136 27.5333 100.2 25.64C101.187 23.72 102.494 22.1867 104.12 21.04C105.774 19.8667 107.52 19.28 109.36 19.28C109.947 19.28 110.334 19.4 110.52 19.64C110.734 19.8533 110.907 20.2533 111.04 20.84C111.6 20.7333 112.187 20.68 112.8 20.68C114.107 20.68 114.76 21.1467 114.76 22.08C114.76 22.64 114.56 23.9733 114.16 26.08C113.547 29.1467 113.24 31.28 113.24 32.48C113.24 32.88 113.334 33.2 113.52 33.44C113.734 33.68 114 33.8 114.32 33.8C114.827 33.8 115.44 33.48 116.16 32.84C116.88 32.1733 117.854 31.1067 119.08 29.64C119.4 29.2667 119.76 29.08 120.16 29.08C120.507 29.08 120.774 29.24 120.96 29.56C121.174 29.88 121.28 30.32 121.28 30.88C121.28 31.9467 121.027 32.7733 120.52 33.36C119.427 34.72 118.267 35.8667 117.04 36.8C115.814 37.7333 114.627 38.2 113.48 38.2C112.6 38.2 111.787 37.9067 111.04 37.32C110.32 36.7067 109.774 35.88 109.4 34.84C108.014 37.08 106.267 38.2 104.16 38.2ZM105.6 34.16C106.187 34.16 106.747 33.8133 107.28 33.12C107.814 32.4267 108.2 31.5067 108.44 30.36L109.92 23C108.8 23.0267 107.76 23.4533 106.8 24.28C105.867 25.08 105.12 26.1467 104.56 27.48C104 28.8133 103.72 30.2267 103.72 31.72C103.72 32.5467 103.88 33.16 104.2 33.56C104.547 33.96 105.014 34.16 105.6 34.16ZM135.869 29.08C136.216 29.08 136.483 29.24 136.669 29.56C136.883 29.88 136.989 30.32 136.989 30.88C136.989 31.9467 136.736 32.7733 136.229 33.36C135.083 34.7733 133.829 35.9333 132.469 36.84C131.109 37.7467 129.549 38.2 127.789 38.2C122.349 38.2 119.629 34.3733 119.629 26.72C119.629 25.5467 119.669 24.36 119.749 23.16H118.189C117.389 23.16 116.843 23.0133 116.549 22.72C116.283 22.4267 116.149 21.96 116.149 21.32C116.149 19.8267 116.749 19.08 117.949 19.08H120.229C120.683 16.1467 121.376 13.4667 122.309 11.04C123.243 8.61333 124.363 6.68 125.669 5.24C127.003 3.8 128.429 3.08 129.949 3.08C131.069 3.08 131.949 3.57333 132.589 4.56C133.229 5.54667 133.549 6.78667 133.549 8.28C133.549 12.4133 131.816 16.0133 128.349 19.08H132.829C133.256 19.08 133.563 19.1733 133.749 19.36C133.936 19.5467 134.029 19.8933 134.029 20.4C134.029 22.24 132.523 23.16 129.509 23.16H124.629C124.576 24.4933 124.549 25.5333 124.549 26.28C124.549 29.0533 124.869 31 125.509 32.12C126.176 33.24 127.216 33.8 128.629 33.8C129.776 33.8 130.789 33.4533 131.669 32.76C132.549 32.0667 133.589 31.0267 134.789 29.64C135.109 29.2667 135.469 29.08 135.869 29.08ZM128.869 6.92C128.469 6.92 128.016 7.42667 127.509 8.44C127.029 9.42667 126.563 10.8133 126.109 12.6C125.683 14.36 125.323 16.32 125.029 18.48C126.603 17.12 127.776 15.6 128.549 13.92C129.349 12.2133 129.749 10.6667 129.749 9.28C129.749 7.70667 129.456 6.92 128.869 6.92ZM154.133 25.72C154.479 25.72 154.746 25.8933 154.933 26.24C155.119 26.5867 155.213 27.0267 155.213 27.56C155.213 28.84 154.826 29.6 154.053 29.84C152.453 30.4 150.693 30.72 148.773 30.8C148.266 33.04 147.266 34.84 145.773 36.2C144.279 37.5333 142.586 38.2 140.693 38.2C139.093 38.2 137.719 37.8133 136.573 37.04C135.453 36.2667 134.599 35.24 134.013 33.96C133.426 32.68 133.132 31.2933 133.132 29.8C133.132 27.7733 133.519 25.9733 134.293 24.4C135.066 22.8 136.133 21.56 137.493 20.68C138.853 19.7733 140.359 19.32 142.013 19.32C144.039 19.32 145.666 20.0267 146.893 21.44C148.146 22.8267 148.879 24.5467 149.093 26.6C150.346 26.52 151.839 26.2533 153.573 25.8C153.786 25.7467 153.973 25.72 154.133 25.72ZM141.013 33.96C141.866 33.96 142.599 33.6133 143.213 32.92C143.853 32.2267 144.279 31.2267 144.493 29.92C143.666 29.36 143.026 28.6267 142.573 27.72C142.146 26.8133 141.933 25.8533 141.933 24.84C141.933 24.4133 141.973 23.9867 142.053 23.56H141.853C140.786 23.56 139.893 24.08 139.173 25.12C138.479 26.1333 138.133 27.5733 138.133 29.44C138.133 30.9067 138.413 32.0267 138.973 32.8C139.559 33.5733 140.239 33.96 141.013 33.96ZM167.939 24.84C168.526 24.84 169.019 25.0533 169.419 25.48C169.846 25.88 170.059 26.3867 170.059 27C170.059 27.3467 169.979 27.72 169.819 28.12C169.393 29.1067 168.793 29.9333 168.019 30.6C167.246 31.2667 166.393 31.6 165.459 31.6C164.713 31.6 164.073 31.3333 163.539 30.8C163.033 30.2667 162.779 29.5467 162.779 28.64C162.779 28.1333 162.806 27.5867 162.859 27C162.913 26.5733 162.939 26.28 162.939 26.12C162.939 25.9067 162.886 25.7467 162.779 25.64C162.699 25.5333 162.593 25.48 162.459 25.48C162.086 25.48 161.579 25.9333 160.939 26.84C160.299 27.72 159.659 28.8933 159.019 30.36C158.379 31.8267 157.859 33.3733 157.459 35C157.166 36.28 156.833 37.1333 156.459 37.56C156.086 37.9867 155.473 38.2 154.619 38.2C153.606 38.2 152.886 37.6667 152.459 36.6C152.059 35.5333 151.859 33.8267 151.859 31.48C151.859 28.0133 152.353 24.72 153.339 21.6C153.579 20.8267 153.966 20.2667 154.499 19.92C155.059 19.5467 155.833 19.36 156.819 19.36C157.353 19.36 157.726 19.4267 157.939 19.56C158.153 19.6933 158.259 19.9467 158.259 20.32C158.259 20.7467 158.059 21.7067 157.659 23.2C157.393 24.2667 157.179 25.2 157.019 26C156.859 26.8 156.726 27.7867 156.619 28.96C157.499 26.6667 158.486 24.8 159.579 23.36C160.673 21.92 161.739 20.8933 162.779 20.28C163.819 19.6667 164.766 19.36 165.619 19.36C166.393 19.36 166.979 19.5867 167.379 20.04C167.806 20.4667 168.019 21.1067 168.019 21.96C168.019 22.4667 167.873 23.4267 167.579 24.84H167.939Z" fill="#222222"/>
</svg>
