<?xml version="1.0" encoding="utf-8"?>
<!-- Generator: Adobe Illustrator 25.1.0, SVG Export Plug-In . SVG Version: 6.00 Build 0)  -->
<svg version="1.1" id="Layer_1" xmlns="http://www.w3.org/2000/svg" xmlns:xlink="http://www.w3.org/1999/xlink" x="0px" y="0px"
	 viewBox="0 0 114.5 43.4" style="enable-background:new 0 0 114.5 43.4;" xml:space="preserve">
<style type="text/css">
	.st0{fill:#EBEDEB;}
	.st1{fill:#7C7C7C;}
	.st2{fill:#C45549;}
	.st3{fill:#E06551;}
	.st4{fill:#FFFFFF;stroke:#393D3B;stroke-width:0.75;stroke-miterlimit:10;}
	.st5{fill:none;stroke:#3F3D3D;stroke-width:0.75;stroke-miterlimit:10;}
	.st6{fill:none;stroke:#393D3B;stroke-width:0.75;stroke-miterlimit:10;}
</style>
<polygon class="st0" points="7.5,25.3 18.1,25.3 18.1,28.8 21.7,28.8 21.7,32.4 25.3,32.4 25.3,35.9 28.8,35.9 28.8,39.5 18.1,39.5 
	18.1,35.9 14.6,35.9 14.6,32.4 11,32.4 11,28.8 7.5,28.8 "/>
<g id="Layer_2_1_">
	<g id="Background">
		<rect x="92.8" y="11" class="st1" width="3.6" height="3.6"/>
		<rect x="85.7" y="11" class="st1" width="7.1" height="3.6"/>
		<rect x="78.6" y="11" class="st1" width="7.1" height="3.6"/>
		<rect x="71.5" y="14.6" class="st1" width="7.1" height="3.6"/>
		<rect x="64.4" y="18.1" class="st1" width="3.6" height="3.6"/>
		<rect x="57.3" y="21.7" class="st1" width="3.5" height="3.6"/>
		<rect x="53.7" y="25.3" class="st1" width="3.6" height="3.6"/>
		<rect x="50.2" y="28.8" class="st1" width="3.5" height="3.6"/>
		<rect x="46.6" y="32.4" class="st1" width="3.6" height="3.6"/>
		<rect x="43" y="35.9" class="st1" width="3.5" height="3.6"/>
		<rect x="39.5" y="39.5" class="st1" width="3.6" height="3.6"/>
		<polygon class="st2" points="46.6,18.1 46.6,14.6 43,14.6 43,21.7 50.2,21.7 50.2,18.1 		"/>
		<polygon class="st2" points="39.5,7.5 35.9,7.5 35.9,14.6 39.5,14.6 39.5,21.7 43,21.7 43,11 39.5,11 		"/>
		<rect x="32.4" y="3.9" class="st2" width="3.6" height="3.6"/>
		<rect x="35.9" y="14.6" class="st3" width="3.5" height="7.1"/>
		<polygon class="st3" points="32.4,0.4 28.8,0.4 28.8,21.7 35.9,21.7 35.9,7.5 32.4,7.5 		"/>
		<polygon class="st3" points="25.3,3.9 21.7,3.9 21.7,21.7 28.8,21.7 28.8,0.4 25.3,0.4 		"/>
		<polygon class="st3" points="18.1,11 14.6,11 14.6,21.7 21.7,21.7 21.7,7.5 18.1,7.5 		"/>
		<polygon class="st3" points="11,18.1 7.5,18.1 7.5,21.7 14.6,21.7 14.6,14.6 11,14.6 		"/>
		<polygon class="st4" points="110.6,3.9 110.6,0.4 107,0.4 107,7.5 114.1,7.5 114.1,3.9 		"/>
		<rect x="99.9" y="0.4" class="st4" width="7.1" height="10.7"/>
		<rect x="92.8" y="0.4" class="st4" width="7.1" height="10.7"/>
		<polygon class="st4" points="82.1,7.5 75,7.5 75,14.6 78.6,14.6 78.6,11 85.7,11 85.7,7.5 85.7,7.5 85.7,11 92.8,11 92.8,3.9 
			82.1,3.9 		"/>
		<rect x="71.5" y="11" class="st4" width="3.6" height="3.6"/>
		<rect x="67.9" y="14.6" class="st4" width="3.6" height="3.6"/>
		<rect x="64.4" y="14.6" class="st4" width="3.6" height="3.6"/>
		<rect x="60.8" y="18.1" class="st4" width="3.6" height="3.6"/>
		<rect x="57.3" y="18.1" class="st4" width="3.5" height="3.6"/>
		<rect x="53.7" y="21.7" class="st4" width="3.6" height="3.6"/>
		<rect x="50.2" y="25.3" class="st4" width="3.5" height="3.6"/>
		<rect x="50.2" y="21.7" class="st4" width="3.5" height="3.6"/>
		<rect x="46.6" y="28.8" class="st4" width="3.6" height="3.6"/>
		<rect x="46.6" y="25.3" class="st4" width="3.6" height="3.6"/>
		<rect x="46.6" y="21.7" class="st4" width="3.6" height="3.6"/>
		<rect x="43" y="32.4" class="st4" width="3.5" height="3.6"/>
		<rect x="43" y="28.8" class="st4" width="3.5" height="3.6"/>
		<rect x="43" y="25.3" class="st4" width="3.5" height="3.6"/>
		<rect x="43" y="21.7" class="st4" width="3.5" height="3.6"/>
		<rect x="39.5" y="35.9" class="st4" width="3.6" height="3.6"/>
		<rect x="39.5" y="32.4" class="st4" width="3.6" height="3.6"/>
		<rect x="39.5" y="28.8" class="st4" width="3.6" height="3.6"/>
		<rect x="39.5" y="25.3" class="st4" width="3.6" height="3.6"/>
		<rect x="39.5" y="21.7" class="st4" width="3.6" height="3.6"/>
		<rect x="35.9" y="39.5" class="st4" width="3.5" height="3.6"/>
		<rect x="35.9" y="35.9" class="st4" width="3.5" height="3.6"/>
		<rect x="35.9" y="32.4" class="st4" width="3.5" height="3.6"/>
		<rect x="35.9" y="28.8" class="st4" width="3.5" height="3.6"/>
		<rect x="35.9" y="25.3" class="st4" width="3.5" height="3.6"/>
		<rect x="35.9" y="21.7" class="st4" width="3.5" height="3.6"/>
		<rect x="32.4" y="39.5" class="st4" width="3.6" height="3.6"/>
		<rect x="32.4" y="35.9" class="st4" width="3.6" height="3.6"/>
		<rect x="32.4" y="32.4" class="st4" width="3.6" height="3.6"/>
		<rect x="32.4" y="28.8" class="st4" width="3.6" height="3.6"/>
		<rect x="32.4" y="25.3" class="st4" width="3.6" height="3.6"/>
		<rect x="32.4" y="21.7" class="st4" width="3.6" height="3.6"/>
		<rect x="28.8" y="39.5" class="st4" width="3.5" height="3.6"/>
		<rect x="28.8" y="35.9" class="st4" width="3.5" height="3.6"/>
		<rect x="28.8" y="32.4" class="st4" width="3.5" height="3.6"/>
		<rect x="28.8" y="28.8" class="st4" width="3.5" height="3.6"/>
		<rect x="28.8" y="25.3" class="st4" width="3.5" height="3.6"/>
		<rect x="28.8" y="21.7" class="st4" width="3.5" height="3.6"/>
		<rect x="25.3" y="39.5" class="st4" width="3.6" height="3.6"/>
		<rect x="25.3" y="32.4" class="st4" width="3.6" height="3.6"/>
		<rect x="25.3" y="28.8" class="st4" width="3.6" height="3.6"/>
		<rect x="25.3" y="25.3" class="st4" width="3.6" height="3.6"/>
		<rect x="25.3" y="21.7" class="st4" width="3.6" height="3.6"/>
		<rect x="21.7" y="39.5" class="st4" width="3.5" height="3.6"/>
		<rect x="21.7" y="28.8" class="st4" width="3.5" height="3.6"/>
		<rect x="21.7" y="25.3" class="st4" width="3.5" height="3.6"/>
		<rect x="21.7" y="21.7" class="st4" width="3.5" height="3.6"/>
		<rect x="18.1" y="39.5" class="st4" width="3.6" height="3.6"/>
		<rect x="18.1" y="25.3" class="st4" width="3.6" height="3.6"/>
		<rect x="18.1" y="21.7" class="st4" width="3.6" height="3.6"/>
		<rect x="14.6" y="35.9" class="st4" width="3.5" height="3.6"/>
		<rect x="14.6" y="21.7" class="st4" width="3.5" height="3.6"/>
		<rect x="11" y="32.4" class="st4" width="3.6" height="3.6"/>
		<rect x="11" y="21.7" class="st4" width="3.6" height="3.6"/>
		<rect x="7.5" y="28.8" class="st4" width="3.6" height="3.6"/>
		<rect x="7.5" y="21.7" class="st4" width="3.6" height="3.6"/>
		<rect x="3.9" y="25.3" class="st4" width="3.6" height="3.6"/>
		<rect x="3.9" y="21.7" class="st4" width="3.6" height="3.6"/>
		<rect x="0.4" y="21.7" class="st4" width="3.5" height="3.6"/>
	</g>
</g>
<polyline class="st5" points="75,11 78.6,11 78.6,7.5 "/>
<polyline class="st5" points="82.1,11 82.1,7.5 107,7.5 "/>
<line class="st5" x1="85.7" y1="7.5" x2="85.7" y2="3.9"/>
<line class="st5" x1="89.3" y1="4" x2="89.3" y2="11.1"/>
<polyline class="st6" points="92.8,3.9 110.6,3.9 110.6,7.5 "/>
<line class="st6" x1="96.4" y1="0.4" x2="96.4" y2="11"/>
<line class="st6" x1="103.5" y1="0.4" x2="103.5" y2="11.1"/>
</svg>
