<svg xmlns="http://www.w3.org/2000/svg" viewBox="0 0 114.51 43.41"><defs><style>.cls-1{fill:#7c7c7c;}.cls-2{fill:#c45549;}.cls-3{fill:#e06551;}.cls-4{fill:#fff;stroke:#393d3b;stroke-miterlimit:10;stroke-width:0.75px;}</style></defs><g id="Layer_2" data-name="Layer 2"><g id="Background"><rect class="cls-1" x="92.81" y="11.04" width="3.56" height="3.56"/><rect class="cls-1" x="85.7" y="11.04" width="7.11" height="3.56"/><rect class="cls-1" x="78.59" y="11.04" width="7.11" height="3.56"/><rect class="cls-1" x="71.48" y="14.6" width="7.11" height="3.56"/><rect class="cls-1" x="64.37" y="18.15" width="3.55" height="3.56"/><rect class="cls-1" x="57.26" y="21.71" width="3.55" height="3.56"/><rect class="cls-1" x="53.7" y="25.26" width="3.56" height="3.56"/><rect class="cls-1" x="50.15" y="28.82" width="3.55" height="3.56"/><rect class="cls-1" x="46.59" y="32.37" width="3.56" height="3.56"/><rect class="cls-1" x="43.04" y="35.93" width="3.55" height="3.56"/><rect class="cls-1" x="39.48" y="39.48" width="3.56" height="3.56"/><polygon class="cls-2" points="46.59 18.15 46.59 14.6 43.04 14.6 43.04 21.71 50.15 21.71 50.15 18.15 46.59 18.15"/><polygon class="cls-2" points="39.48 7.49 35.93 7.49 35.93 14.6 39.48 14.6 39.48 21.71 43.03 21.71 43.03 11.04 39.48 11.04 39.48 7.49"/><rect class="cls-2" x="32.37" y="3.93" width="3.56" height="3.56"/><rect class="cls-3" x="35.93" y="14.6" width="3.55" height="7.11"/><polygon class="cls-3" points="32.37 0.38 28.82 0.38 28.82 21.71 35.92 21.71 35.92 7.49 32.37 7.49 32.37 0.38"/><polygon class="cls-3" points="25.26 3.93 21.71 3.93 21.71 21.71 28.82 21.71 28.82 0.38 25.26 0.38 25.26 3.93"/><polygon class="cls-3" points="18.15 11.04 14.6 11.04 14.6 21.71 21.7 21.71 21.7 7.49 18.15 7.49 18.15 11.04"/><polygon class="cls-3" points="11.04 18.15 7.49 18.15 7.49 21.71 14.59 21.71 14.59 14.6 11.04 14.6 11.04 18.15"/><polygon class="cls-4" points="110.58 3.93 110.58 0.38 107.03 0.38 107.03 7.49 114.14 7.49 114.14 3.93 110.58 3.93"/><rect class="cls-4" x="99.92" y="0.38" width="7.11" height="10.67"/><rect class="cls-4" x="92.81" y="0.38" width="7.11" height="10.67"/><polygon class="cls-4" points="82.14 7.49 75.03 7.49 75.03 14.6 78.59 14.6 78.59 11.04 85.7 11.04 85.7 7.49 85.7 7.49 85.7 11.04 92.81 11.04 92.81 3.93 82.14 3.93 82.14 7.49"/><rect class="cls-4" x="71.48" y="11.04" width="3.56" height="3.56"/><rect class="cls-4" x="67.92" y="14.6" width="3.56" height="3.56"/><rect class="cls-4" x="64.37" y="14.6" width="3.55" height="3.56"/><rect class="cls-4" x="60.81" y="18.15" width="3.56" height="3.56"/><rect class="cls-4" x="57.26" y="18.15" width="3.55" height="3.56"/><rect class="cls-4" x="53.7" y="21.71" width="3.56" height="3.56"/><rect class="cls-4" x="50.15" y="25.26" width="3.55" height="3.56"/><rect class="cls-4" x="50.15" y="21.71" width="3.55" height="3.56"/><rect class="cls-4" x="46.59" y="28.82" width="3.56" height="3.56"/><rect class="cls-4" x="46.59" y="25.26" width="3.56" height="3.56"/><rect class="cls-4" x="46.59" y="21.71" width="3.56" height="3.56"/><rect class="cls-4" x="43.04" y="32.37" width="3.55" height="3.56"/><rect class="cls-4" x="43.04" y="28.82" width="3.55" height="3.56"/><rect class="cls-4" x="43.04" y="25.26" width="3.55" height="3.56"/><rect class="cls-4" x="43.04" y="21.71" width="3.55" height="3.56"/><rect class="cls-4" x="39.48" y="35.93" width="3.56" height="3.56"/><rect class="cls-4" x="39.48" y="32.37" width="3.56" height="3.56"/><rect class="cls-4" x="39.48" y="28.82" width="3.56" height="3.56"/><rect class="cls-4" x="39.48" y="25.26" width="3.56" height="3.56"/><rect class="cls-4" x="39.48" y="21.71" width="3.56" height="3.56"/><rect class="cls-4" x="35.93" y="39.48" width="3.55" height="3.56"/><rect class="cls-4" x="35.93" y="35.93" width="3.55" height="3.56"/><rect class="cls-4" x="35.93" y="32.37" width="3.55" height="3.56"/><rect class="cls-4" x="35.93" y="28.82" width="3.55" height="3.56"/><rect class="cls-4" x="35.93" y="25.26" width="3.55" height="3.56"/><rect class="cls-4" x="35.93" y="21.71" width="3.55" height="3.56"/><rect class="cls-4" x="32.37" y="39.48" width="3.56" height="3.56"/><rect class="cls-4" x="32.37" y="35.93" width="3.56" height="3.56"/><rect class="cls-4" x="32.37" y="32.37" width="3.56" height="3.56"/><rect class="cls-4" x="32.37" y="28.82" width="3.56" height="3.56"/><rect class="cls-4" x="32.37" y="25.26" width="3.56" height="3.56"/><rect class="cls-4" x="32.37" y="21.71" width="3.56" height="3.56"/><rect class="cls-4" x="28.82" y="39.48" width="3.55" height="3.56"/><rect class="cls-4" x="28.82" y="35.93" width="3.55" height="3.56"/><rect class="cls-4" x="28.82" y="32.37" width="3.55" height="3.56"/><rect class="cls-4" x="28.82" y="28.82" width="3.55" height="3.56"/><rect class="cls-4" x="28.82" y="25.26" width="3.55" height="3.56"/><rect class="cls-4" x="28.82" y="21.71" width="3.55" height="3.56"/><rect class="cls-4" x="25.26" y="39.48" width="3.56" height="3.56"/><rect class="cls-4" x="25.26" y="32.37" width="3.56" height="3.56"/><rect class="cls-4" x="25.26" y="28.82" width="3.56" height="3.56"/><rect class="cls-4" x="25.26" y="25.26" width="3.56" height="3.56"/><rect class="cls-4" x="25.26" y="21.71" width="3.56" height="3.56"/><rect class="cls-4" x="21.71" y="39.48" width="3.55" height="3.56"/><rect class="cls-4" x="21.71" y="28.82" width="3.55" height="3.56"/><rect class="cls-4" x="21.71" y="25.26" width="3.55" height="3.56"/><rect class="cls-4" x="21.71" y="21.71" width="3.55" height="3.56"/><rect class="cls-4" x="18.15" y="39.48" width="3.56" height="3.56"/><rect class="cls-4" x="18.15" y="25.26" width="3.56" height="3.56"/><rect class="cls-4" x="18.15" y="21.71" width="3.56" height="3.56"/><rect class="cls-4" x="14.6" y="35.93" width="3.55" height="3.56"/><rect class="cls-4" x="14.6" y="21.71" width="3.55" height="3.56"/><rect class="cls-4" x="11.04" y="32.37" width="3.56" height="3.56"/><rect class="cls-4" x="11.04" y="21.71" width="3.56" height="3.56"/><rect class="cls-4" x="7.49" y="28.82" width="3.55" height="3.56"/><rect class="cls-4" x="7.49" y="21.71" width="3.55" height="3.56"/><rect class="cls-4" x="3.93" y="25.26" width="3.56" height="3.56"/><rect class="cls-4" x="3.93" y="21.71" width="3.56" height="3.56"/><rect class="cls-4" x="0.38" y="21.71" width="3.55" height="3.56"/></g></g></svg>