<svg xmlns="http://www.w3.org/2000/svg" viewBox="0 0 21.52 30.58"><defs><style>.cls-1{fill:#ffce00;}.cls-2{fill:#7a4b18;}.cls-3{fill:#d6ad00;}.cls-4{fill:#aa631d;}</style></defs><g id="Layer_2" data-name="Layer 2"><g id="branch-of-wheat"><rect class="cls-1" x="20.39" y="6.8" width="1.13" height="1.13"/><rect class="cls-2" x="20.39" width="1.13" height="1.13"/><rect class="cls-1" x="19.25" y="6.8" width="1.13" height="1.13"/><rect class="cls-2" x="19.25" y="3.4" width="1.13" height="1.13"/><rect class="cls-2" x="19.25" y="1.13" width="1.13" height="1.13"/><rect class="cls-1" x="18.12" y="7.93" width="1.13" height="1.13"/><rect class="cls-1" x="18.12" y="6.8" width="1.13" height="1.13"/><rect class="cls-1" x="18.12" y="5.66" width="1.13" height="1.13"/><rect class="cls-2" x="18.12" y="3.4" width="1.13" height="1.13"/><rect class="cls-2" x="18.12" y="2.27" width="1.13" height="1.13"/><rect class="cls-1" x="16.99" y="12.46" width="1.13" height="1.13"/><rect class="cls-3" x="16.99" y="7.93" width="1.13" height="1.13"/><rect class="cls-1" x="16.99" y="6.8" width="1.13" height="1.13"/><rect class="cls-1" x="16.99" y="5.66" width="1.13" height="1.13"/><rect class="cls-2" x="16.99" y="4.53" width="1.13" height="1.13"/><rect class="cls-4" x="16.99" y="1.13" width="1.13" height="1.13"/><rect class="cls-1" x="15.86" y="16.99" width="1.13" height="1.13"/><rect class="cls-3" x="15.86" y="13.59" width="1.13" height="1.13"/><rect class="cls-1" x="15.86" y="12.46" width="1.13" height="1.13"/><rect class="cls-1" x="15.86" y="11.33" width="1.13" height="1.13"/><rect class="cls-3" x="15.86" y="9.06" width="1.13" height="1.13"/><rect class="cls-3" x="15.86" y="7.93" width="1.13" height="1.13"/><rect class="cls-1" x="15.86" y="6.8" width="1.13" height="1.13"/><rect class="cls-2" x="15.86" y="4.53" width="1.13" height="1.13"/><rect class="cls-4" x="15.86" y="3.4" width="1.13" height="1.13"/><rect class="cls-4" x="15.86" y="2.27" width="1.13" height="1.13"/><rect class="cls-1" x="14.72" y="16.99" width="1.13" height="1.13"/><rect class="cls-3" x="14.72" y="13.59" width="1.13" height="1.13"/><rect class="cls-3" x="14.72" y="12.46" width="1.13" height="1.13"/><rect class="cls-1" x="14.72" y="11.33" width="1.13" height="1.13"/><rect class="cls-3" x="14.72" y="9.06" width="1.13" height="1.13"/><rect class="cls-1" x="14.72" y="7.93" width="1.13" height="1.13"/><rect class="cls-2" x="14.72" y="5.66" width="1.13" height="1.13"/><rect class="cls-4" x="14.72" y="4.53" width="1.13" height="1.13"/><rect class="cls-1" x="13.59" y="21.52" width="1.13" height="1.13"/><rect class="cls-1" x="13.59" y="18.12" width="1.13" height="1.13"/><rect class="cls-1" x="13.59" y="16.99" width="1.13" height="1.13"/><rect class="cls-1" x="13.59" y="15.86" width="1.13" height="1.13"/><rect class="cls-1" x="13.59" y="13.59" width="1.13" height="1.13"/><rect class="cls-3" x="13.59" y="12.46" width="1.13" height="1.13"/><rect class="cls-1" x="13.59" y="11.33" width="1.13" height="1.13"/><rect class="cls-3" x="13.59" y="9.06" width="1.13" height="1.13"/><rect class="cls-2" x="13.59" y="7.93" width="1.13" height="1.13"/><rect class="cls-2" x="13.59" y="6.8" width="1.13" height="1.13"/><rect class="cls-1" x="13.59" y="5.66" width="1.13" height="1.13"/><rect class="cls-1" x="13.59" y="4.53" width="1.13" height="1.13"/><rect class="cls-1" x="13.59" y="3.4" width="1.13" height="1.13"/><rect class="cls-1" x="12.46" y="21.52" width="1.13" height="1.13"/><rect class="cls-1" x="12.46" y="20.39" width="1.13" height="1.13"/><rect class="cls-3" x="12.46" y="18.12" width="1.13" height="1.13"/><rect class="cls-3" x="12.46" y="16.99" width="1.13" height="1.13"/><rect class="cls-1" x="12.46" y="15.86" width="1.13" height="1.13"/><rect class="cls-1" x="12.46" y="13.59" width="1.13" height="1.13"/><rect class="cls-3" x="12.46" y="12.46" width="1.13" height="1.13"/><rect class="cls-2" x="12.46" y="10.19" width="1.13" height="1.13"/><rect class="cls-4" x="12.46" y="9.06" width="1.13" height="1.13"/><rect class="cls-4" x="12.46" y="7.93" width="1.13" height="1.13"/><rect class="cls-3" x="12.46" y="6.8" width="1.13" height="1.13"/><rect class="cls-3" x="12.46" y="5.66" width="1.13" height="1.13"/><rect class="cls-1" x="12.46" y="4.53" width="1.13" height="1.13"/><rect class="cls-1" x="12.46" y="3.4" width="1.13" height="1.13"/><rect class="cls-1" x="12.46" y="2.27" width="1.13" height="1.13"/><rect class="cls-1" x="11.33" y="22.65" width="1.13" height="1.13"/><rect class="cls-1" x="11.33" y="21.52" width="1.13" height="1.13"/><rect class="cls-1" x="11.33" y="20.39" width="1.13" height="1.13"/><rect class="cls-3" x="11.33" y="18.12" width="1.13" height="1.13"/><rect class="cls-1" x="11.33" y="16.99" width="1.13" height="1.13"/><rect class="cls-1" x="11.33" y="13.59" width="1.13" height="1.13"/><rect class="cls-2" x="11.33" y="12.46" width="1.13" height="1.13"/><rect class="cls-2" x="11.33" y="11.33" width="1.13" height="1.13"/><rect class="cls-2" x="11.33" y="10.19" width="1.13" height="1.13"/><rect class="cls-3" x="11.33" y="5.66" width="1.13" height="1.13"/><rect class="cls-1" x="11.33" y="4.53" width="1.13" height="1.13"/><rect class="cls-1" x="10.19" y="27.18" width="1.13" height="1.13"/><rect class="cls-3" x="10.19" y="22.65" width="1.13" height="1.13"/><rect class="cls-1" x="10.19" y="21.52" width="1.13" height="1.13"/><rect class="cls-1" x="10.19" y="20.39" width="1.13" height="1.13"/><rect class="cls-3" x="10.19" y="18.12" width="1.13" height="1.13"/><rect class="cls-1" x="10.19" y="16.99" width="1.13" height="1.13"/><rect class="cls-2" x="10.19" y="15.86" width="1.13" height="1.13"/><rect class="cls-4" x="10.19" y="14.72" width="1.13" height="1.13"/><rect class="cls-4" x="10.19" y="13.59" width="1.13" height="1.13"/><rect class="cls-4" x="10.19" y="12.46" width="1.13" height="1.13"/><rect class="cls-1" x="10.19" y="11.33" width="1.13" height="1.13"/><rect class="cls-1" x="10.19" y="10.19" width="1.13" height="1.13"/><rect class="cls-1" x="10.19" y="9.06" width="1.13" height="1.13"/><rect class="cls-1" x="10.19" y="7.93" width="1.13" height="1.13"/><rect class="cls-3" x="9.06" y="27.18" width="1.13" height="1.13"/><rect class="cls-3" x="9.06" y="22.65" width="1.13" height="1.13"/><rect class="cls-1" x="9.06" y="21.52" width="1.13" height="1.13"/><rect class="cls-2" x="9.06" y="18.12" width="1.13" height="1.13"/><rect class="cls-2" x="9.06" y="16.99" width="1.13" height="1.13"/><rect class="cls-4" x="9.06" y="15.86" width="1.13" height="1.13"/><rect class="cls-3" x="9.06" y="12.46" width="1.13" height="1.13"/><rect class="cls-3" x="9.06" y="11.33" width="1.13" height="1.13"/><rect class="cls-3" x="9.06" y="10.19" width="1.13" height="1.13"/><rect class="cls-1" x="9.06" y="9.06" width="1.13" height="1.13"/><rect class="cls-1" x="9.06" y="7.93" width="1.13" height="1.13"/><rect class="cls-1" x="9.06" y="6.8" width="1.13" height="1.13"/><rect class="cls-3" x="7.93" y="28.31" width="1.13" height="1.13"/><rect class="cls-1" x="7.93" y="27.18" width="1.13" height="1.13"/><rect class="cls-1" x="7.93" y="26.05" width="1.13" height="1.13"/><rect class="cls-3" x="7.93" y="23.78" width="1.13" height="1.13"/><rect class="cls-3" x="7.93" y="22.65" width="1.13" height="1.13"/><rect class="cls-2" x="7.93" y="20.39" width="1.13" height="1.13"/><rect class="cls-4" x="7.93" y="19.25" width="1.13" height="1.13"/><rect class="cls-4" x="7.93" y="18.12" width="1.13" height="1.13"/><rect class="cls-3" x="7.93" y="16.99" width="1.13" height="1.13"/><rect class="cls-1" x="7.93" y="15.86" width="1.13" height="1.13"/><rect class="cls-1" x="7.93" y="14.72" width="1.13" height="1.13"/><rect class="cls-3" x="7.93" y="10.19" width="1.13" height="1.13"/><rect class="cls-1" x="7.93" y="9.06" width="1.13" height="1.13"/><rect class="cls-3" x="6.8" y="28.31" width="1.13" height="1.13"/><rect class="cls-1" x="6.8" y="27.18" width="1.13" height="1.13"/><rect class="cls-1" x="6.8" y="26.05" width="1.13" height="1.13"/><rect class="cls-3" x="6.8" y="23.78" width="1.13" height="1.13"/><rect class="cls-2" x="6.8" y="22.65" width="1.13" height="1.13"/><rect class="cls-2" x="6.8" y="21.52" width="1.13" height="1.13"/><rect class="cls-4" x="6.8" y="20.39" width="1.13" height="1.13"/><rect class="cls-3" x="6.8" y="16.99" width="1.13" height="1.13"/><rect class="cls-3" x="6.8" y="15.86" width="1.13" height="1.13"/><rect class="cls-1" x="6.8" y="14.72" width="1.13" height="1.13"/><rect class="cls-1" x="6.8" y="13.59" width="1.13" height="1.13"/><rect class="cls-1" x="6.8" y="12.46" width="1.13" height="1.13"/><rect class="cls-1" x="5.66" y="28.31" width="1.13" height="1.13"/><rect class="cls-1" x="5.66" y="27.18" width="1.13" height="1.13"/><rect class="cls-2" x="5.66" y="24.92" width="1.13" height="1.13"/><rect class="cls-4" x="5.66" y="23.78" width="1.13" height="1.13"/><rect class="cls-2" x="5.66" y="22.65" width="1.13" height="1.13"/><rect class="cls-1" x="5.66" y="20.39" width="1.13" height="1.13"/><rect class="cls-1" x="5.66" y="19.25" width="1.13" height="1.13"/><rect class="cls-1" x="5.66" y="14.72" width="1.13" height="1.13"/><rect class="cls-1" x="5.66" y="13.59" width="1.13" height="1.13"/><rect class="cls-1" x="4.53" y="28.31" width="1.13" height="1.13"/><rect class="cls-2" x="4.53" y="27.18" width="1.13" height="1.13"/><rect class="cls-2" x="4.53" y="26.05" width="1.13" height="1.13"/><rect class="cls-4" x="4.53" y="24.92" width="1.13" height="1.13"/><rect class="cls-3" x="4.53" y="22.65" width="1.13" height="1.13"/><rect class="cls-3" x="4.53" y="21.52" width="1.13" height="1.13"/><rect class="cls-1" x="4.53" y="20.39" width="1.13" height="1.13"/><rect class="cls-1" x="4.53" y="19.25" width="1.13" height="1.13"/><rect class="cls-1" x="4.53" y="18.12" width="1.13" height="1.13"/><rect class="cls-1" x="4.53" y="16.99" width="1.13" height="1.13"/><rect class="cls-2" x="3.4" y="29.45" width="1.13" height="1.13"/><rect class="cls-2" x="3.4" y="28.31" width="1.13" height="1.13"/><rect class="cls-4" x="3.4" y="27.18" width="1.13" height="1.13"/><rect class="cls-3" x="3.4" y="21.52" width="1.13" height="1.13"/><rect class="cls-3" x="3.4" y="20.39" width="1.13" height="1.13"/><rect class="cls-1" x="3.4" y="19.25" width="1.13" height="1.13"/><rect class="cls-3" x="2.27" y="28.31" width="1.13" height="1.13"/><rect class="cls-1" x="2.27" y="27.18" width="1.13" height="1.13"/><rect class="cls-1" x="2.27" y="26.05" width="1.13" height="1.13"/><rect class="cls-1" x="2.27" y="24.92" width="1.13" height="1.13"/><rect class="cls-1" x="2.27" y="23.78" width="1.13" height="1.13"/><rect class="cls-3" x="1.13" y="27.18" width="1.13" height="1.13"/><rect class="cls-3" x="1.13" y="26.05" width="1.13" height="1.13"/><rect class="cls-1" x="1.13" y="24.92" width="1.13" height="1.13"/><rect class="cls-1" x="1.13" y="23.78" width="1.13" height="1.13"/><rect class="cls-1" x="1.13" y="22.65" width="1.13" height="1.13"/><rect class="cls-1" x="1.13" y="21.52" width="1.13" height="1.13"/><rect class="cls-3" y="26.05" width="1.13" height="1.13"/><rect class="cls-3" y="24.92" width="1.13" height="1.13"/><rect class="cls-1" y="23.78" width="1.13" height="1.13"/></g></g></svg>