<svg xmlns="http://www.w3.org/2000/svg" viewBox="0 0 13.77 30.59"><defs><style>.cls-1{fill:#e0d0c6;}.cls-2{fill:#eadfd6;}.cls-3{fill:#b7a497;}.cls-4{fill:#f9e6d9;}.cls-5{fill:#f4e7dc;}</style></defs><g id="Layer_2" data-name="Layer 2"><g id="bottle-of-milk"><rect class="cls-1" x="12.24" y="26.01" width="1.53" height="1.53"/><rect class="cls-1" x="12.24" y="24.48" width="1.53" height="1.53"/><rect class="cls-1" x="12.24" y="22.95" width="1.53" height="1.53"/><rect class="cls-2" x="12.24" y="21.42" width="1.53" height="1.53"/><rect class="cls-2" x="12.24" y="19.89" width="1.53" height="1.53"/><rect class="cls-2" x="12.24" y="18.36" width="1.53" height="1.53"/><rect class="cls-2" x="12.24" y="16.83" width="1.53" height="1.53"/><rect class="cls-2" x="12.24" y="15.3" width="1.53" height="1.53"/><rect class="cls-2" x="12.24" y="13.77" width="1.53" height="1.53"/><rect class="cls-2" x="12.24" y="12.24" width="1.53" height="1.53"/><rect class="cls-3" x="12.24" y="10.71" width="1.53" height="1.53"/><rect class="cls-1" x="10.71" y="27.54" width="1.53" height="1.53"/><rect class="cls-1" x="10.71" y="26.01" width="1.53" height="1.53"/><rect class="cls-2" x="10.71" y="24.48" width="1.53" height="1.53"/><rect class="cls-2" x="10.71" y="22.95" width="1.53" height="1.53"/><rect class="cls-2" x="10.71" y="21.42" width="1.53" height="1.53"/><rect class="cls-2" x="10.71" y="19.89" width="1.53" height="1.53"/><rect class="cls-2" x="10.71" y="18.36" width="1.53" height="1.53"/><rect class="cls-2" x="10.71" y="16.83" width="1.53" height="1.53"/><rect class="cls-2" x="10.71" y="15.3" width="1.53" height="1.53"/><rect class="cls-2" x="10.71" y="13.77" width="1.53" height="1.53"/><rect class="cls-2" x="10.71" y="12.24" width="1.53" height="1.53"/><rect class="cls-3" x="10.71" y="10.71" width="1.53" height="1.53"/><rect class="cls-3" x="10.71" y="9.18" width="1.53" height="1.53"/><rect class="cls-3" x="10.71" y="7.65" width="1.53" height="1.53"/><rect class="cls-2" x="10.71" y="1.53" width="1.53" height="1.53"/><rect class="cls-2" x="10.71" width="1.53" height="1.53"/><rect class="cls-1" x="9.18" y="29.06" width="1.53" height="1.53"/><rect class="cls-1" x="9.18" y="27.54" width="1.53" height="1.53"/><rect class="cls-2" x="9.18" y="26.01" width="1.53" height="1.53"/><rect class="cls-2" x="9.18" y="24.48" width="1.53" height="1.53"/><rect class="cls-2" x="9.18" y="22.95" width="1.53" height="1.53"/><rect class="cls-2" x="9.18" y="21.42" width="1.53" height="1.53"/><rect class="cls-2" x="9.18" y="19.89" width="1.53" height="1.53"/><rect class="cls-2" x="9.18" y="18.36" width="1.53" height="1.53"/><rect class="cls-2" x="9.18" y="16.83" width="1.53" height="1.53"/><rect class="cls-2" x="9.18" y="15.3" width="1.53" height="1.53"/><rect class="cls-2" x="9.18" y="13.77" width="1.53" height="1.53"/><rect class="cls-3" x="9.18" y="12.24" width="1.53" height="1.53"/><rect class="cls-3" x="9.18" y="10.71" width="1.53" height="1.53"/><rect class="cls-3" x="9.18" y="9.18" width="1.53" height="1.53"/><rect class="cls-3" x="9.18" y="7.65" width="1.53" height="1.53"/><rect class="cls-3" x="9.18" y="6.12" width="1.53" height="1.53"/><rect class="cls-3" x="9.18" y="4.59" width="1.53" height="1.53"/><rect class="cls-3" x="9.18" y="3.06" width="1.53" height="1.53"/><rect class="cls-2" x="9.18" y="1.53" width="1.53" height="1.53"/><rect class="cls-2" x="9.18" width="1.53" height="1.53"/><rect class="cls-1" x="7.65" y="29.06" width="1.53" height="1.53"/><rect class="cls-2" x="7.65" y="27.54" width="1.53" height="1.53"/><rect class="cls-2" x="7.65" y="26.01" width="1.53" height="1.53"/><rect class="cls-2" x="7.65" y="24.48" width="1.53" height="1.53"/><rect class="cls-2" x="7.65" y="22.95" width="1.53" height="1.53"/><rect class="cls-2" x="7.65" y="21.42" width="1.53" height="1.53"/><rect class="cls-2" x="7.65" y="19.89" width="1.53" height="1.53"/><rect class="cls-2" x="7.65" y="18.36" width="1.53" height="1.53"/><rect class="cls-2" x="7.65" y="16.83" width="1.53" height="1.53"/><rect class="cls-2" x="7.65" y="15.3" width="1.53" height="1.53"/><rect class="cls-2" x="7.65" y="13.77" width="1.53" height="1.53"/><rect class="cls-3" x="7.65" y="12.24" width="1.53" height="1.53"/><rect class="cls-3" x="7.65" y="10.71" width="1.53" height="1.53"/><rect class="cls-3" x="7.65" y="9.18" width="1.53" height="1.53"/><rect class="cls-3" x="7.65" y="7.65" width="1.53" height="1.53"/><rect class="cls-3" x="7.65" y="6.12" width="1.53" height="1.53"/><rect class="cls-3" x="7.65" y="4.59" width="1.53" height="1.53"/><rect class="cls-3" x="7.65" y="3.06" width="1.53" height="1.53"/><rect class="cls-2" x="7.65" y="1.53" width="1.53" height="1.53"/><rect class="cls-2" x="7.65" width="1.53" height="1.53"/><rect class="cls-1" x="6.12" y="29.06" width="1.53" height="1.53"/><rect class="cls-2" x="6.12" y="27.54" width="1.53" height="1.53"/><rect class="cls-2" x="6.12" y="26.01" width="1.53" height="1.53"/><rect class="cls-2" x="6.12" y="24.48" width="1.53" height="1.53"/><rect class="cls-2" x="6.12" y="22.95" width="1.53" height="1.53"/><rect class="cls-2" x="6.12" y="21.42" width="1.53" height="1.53"/><rect class="cls-2" x="6.12" y="19.89" width="1.53" height="1.53"/><rect class="cls-2" x="6.12" y="18.36" width="1.53" height="1.53"/><rect class="cls-2" x="6.12" y="16.83" width="1.53" height="1.53"/><rect class="cls-2" x="6.12" y="15.3" width="1.53" height="1.53"/><rect class="cls-2" x="6.12" y="13.77" width="1.53" height="1.53"/><rect class="cls-3" x="6.12" y="12.24" width="1.53" height="1.53"/><rect class="cls-3" x="6.12" y="10.71" width="1.53" height="1.53"/><rect class="cls-3" x="6.12" y="9.18" width="1.53" height="1.53"/><rect class="cls-3" x="6.12" y="7.65" width="1.53" height="1.53"/><rect class="cls-3" x="6.12" y="6.12" width="1.53" height="1.53"/><rect class="cls-3" x="6.12" y="4.59" width="1.53" height="1.53"/><rect class="cls-3" x="6.12" y="3.06" width="1.53" height="1.53"/><rect class="cls-2" x="6.12" y="1.53" width="1.53" height="1.53"/><rect class="cls-4" x="6.12" width="1.53" height="1.53"/><rect class="cls-2" x="4.59" y="29.06" width="1.53" height="1.53"/><rect class="cls-2" x="4.59" y="27.54" width="1.53" height="1.53"/><rect class="cls-2" x="4.59" y="26.01" width="1.53" height="1.53"/><rect class="cls-2" x="4.59" y="24.48" width="1.53" height="1.53"/><rect class="cls-2" x="4.59" y="22.95" width="1.53" height="1.53"/><rect class="cls-2" x="4.59" y="21.42" width="1.53" height="1.53"/><rect class="cls-2" x="4.59" y="19.89" width="1.53" height="1.53"/><rect class="cls-2" x="4.59" y="18.36" width="1.53" height="1.53"/><rect class="cls-2" x="4.59" y="16.83" width="1.53" height="1.53"/><rect class="cls-2" x="4.59" y="15.3" width="1.53" height="1.53"/><rect class="cls-2" x="4.59" y="13.77" width="1.53" height="1.53"/><rect class="cls-3" x="4.59" y="12.24" width="1.53" height="1.53"/><rect class="cls-3" x="4.59" y="10.71" width="1.53" height="1.53"/><rect class="cls-5" x="4.59" y="9.18" width="1.53" height="1.53"/><rect class="cls-5" x="4.59" y="7.65" width="1.53" height="1.53"/><rect class="cls-5" x="4.59" y="6.12" width="1.53" height="1.53"/><rect class="cls-5" x="4.59" y="4.59" width="1.53" height="1.53"/><rect class="cls-3" x="4.59" y="3.06" width="1.53" height="1.53"/><rect class="cls-2" x="4.59" y="1.53" width="1.53" height="1.53"/><rect class="cls-4" x="4.59" width="1.53" height="1.53"/><rect class="cls-2" x="3.06" y="29.06" width="1.53" height="1.53"/><rect class="cls-2" x="3.06" y="27.54" width="1.53" height="1.53"/><rect class="cls-2" x="3.06" y="26.01" width="1.53" height="1.53"/><rect class="cls-2" x="3.06" y="24.48" width="1.53" height="1.53"/><rect class="cls-4" x="3.06" y="22.95" width="1.53" height="1.53"/><rect class="cls-4" x="3.06" y="21.42" width="1.53" height="1.53"/><rect class="cls-4" x="3.06" y="19.89" width="1.53" height="1.53"/><rect class="cls-4" x="3.06" y="18.36" width="1.53" height="1.53"/><rect class="cls-4" x="3.06" y="16.83" width="1.53" height="1.53"/><rect class="cls-2" x="3.06" y="15.3" width="1.53" height="1.53"/><rect class="cls-3" x="3.06" y="13.77" width="1.53" height="1.53"/><rect class="cls-3" x="3.06" y="12.24" width="1.53" height="1.53"/><rect class="cls-5" x="3.06" y="10.71" width="1.53" height="1.53"/><rect class="cls-5" x="3.06" y="9.18" width="1.53" height="1.53"/><rect class="cls-3" x="3.06" y="7.65" width="1.53" height="1.53"/><rect class="cls-3" x="3.06" y="6.12" width="1.53" height="1.53"/><rect class="cls-3" x="3.06" y="4.59" width="1.53" height="1.53"/><rect class="cls-3" x="3.06" y="3.06" width="1.53" height="1.53"/><rect class="cls-2" x="3.06" y="1.53" width="1.53" height="1.53"/><rect class="cls-4" x="3.06" width="1.53" height="1.53"/><rect class="cls-2" x="1.53" y="27.54" width="1.53" height="1.53"/><rect class="cls-2" x="1.53" y="26.01" width="1.53" height="1.53"/><rect class="cls-2" x="1.53" y="24.48" width="1.53" height="1.53"/><rect class="cls-4" x="1.53" y="22.95" width="1.53" height="1.53"/><rect class="cls-4" x="1.53" y="21.42" width="1.53" height="1.53"/><rect class="cls-4" x="1.53" y="19.89" width="1.53" height="1.53"/><rect class="cls-4" x="1.53" y="18.36" width="1.53" height="1.53"/><rect class="cls-4" x="1.53" y="16.83" width="1.53" height="1.53"/><rect class="cls-2" x="1.53" y="15.3" width="1.53" height="1.53"/><rect class="cls-3" x="1.53" y="13.77" width="1.53" height="1.53"/><rect class="cls-3" x="1.53" y="12.24" width="1.53" height="1.53"/><rect class="cls-5" x="1.53" y="10.71" width="1.53" height="1.53"/><rect class="cls-3" x="1.53" y="9.18" width="1.53" height="1.53"/><rect class="cls-3" x="1.53" y="7.65" width="1.53" height="1.53"/><rect class="cls-2" x="1.53" y="1.53" width="1.53" height="1.53"/><rect class="cls-4" x="1.53" width="1.53" height="1.53"/><rect class="cls-2" y="26.01" width="1.53" height="1.53"/><rect class="cls-2" y="24.48" width="1.53" height="1.53"/><rect class="cls-2" y="22.95" width="1.53" height="1.53"/><rect class="cls-2" y="21.42" width="1.53" height="1.53"/><rect class="cls-2" y="19.89" width="1.53" height="1.53"/><rect class="cls-2" y="18.36" width="1.53" height="1.53"/><rect class="cls-2" y="16.83" width="1.53" height="1.53"/><rect class="cls-2" y="15.3" width="1.53" height="1.53"/><rect class="cls-3" y="13.77" width="1.53" height="1.53"/><rect class="cls-3" y="12.24" width="1.53" height="1.53"/><rect class="cls-3" y="10.71" width="1.53" height="1.53"/></g></g></svg>