<?xml version="1.0" encoding="UTF-8" ?>
<svg version="1.1" width="24" height="24" xmlns="http://www.w3.org/2000/svg">
<rect x="17" y="1" width="1" height="1" fill="#F5DEB3" />
<rect x="16" y="2" width="1" height="1" fill="#F4A460" />
<rect x="17" y="2" width="1" height="1" fill="#F5DEB3" />
<rect x="21" y="2" width="1" height="1" fill="#A0522D" />
<rect x="22" y="2" width="1" height="1" fill="#8B4513" />
<rect x="16" y="3" width="1" height="1" fill="#F5DEB3" />
<rect x="17" y="3" width="1" height="1" fill="#F5DEB3" />
<rect x="19" y="3" width="1" height="1" fill="#A0522D" />
<rect x="20" y="3" width="1" height="1" fill="#A0522D" />
<rect x="21" y="3" width="1" height="1" fill="#8B4513" />
<rect x="13" y="4" width="1" height="1" fill="#F5DEB3" />
<rect x="16" y="4" width="1" height="1" fill="#F5DEB3" />
<rect x="17" y="4" width="1" height="1" fill="#A0522D" />
<rect x="18" y="4" width="1" height="1" fill="#A0522D" />
<rect x="19" y="4" width="1" height="1" fill="#8B4513" />
<rect x="12" y="5" width="1" height="1" fill="#F5DEB3" />
<rect x="13" y="5" width="1" height="1" fill="#F5DEB3" />
<rect x="15" y="5" width="1" height="1" fill="#A0522D" />
<rect x="16" y="5" width="1" height="1" fill="#A0522D" />
<rect x="17" y="5" width="1" height="1" fill="#8B4513" />
<rect x="18" y="5" width="1" height="1" fill="#F5DEB3" />
<rect x="19" y="5" width="1" height="1" fill="#F5DEB3" />
<rect x="10" y="6" width="1" height="1" fill="#F5DEB3" />
<rect x="12" y="6" width="1" height="1" fill="#F4A460" />
<rect x="13" y="6" width="1" height="1" fill="#F5DEB3" />
<rect x="14" y="6" width="1" height="1" fill="#A0522D" />
<rect x="15" y="6" width="1" height="1" fill="#A0522D" />
<rect x="17" y="6" width="1" height="1" fill="#F5DEB3" />
<rect x="18" y="6" width="1" height="1" fill="#F4A460" />
<rect x="19" y="6" width="1" height="1" fill="#F5DEB3" />
<rect x="20" y="6" width="1" height="1" fill="#F5DEB3" />
<rect x="9" y="7" width="1" height="1" fill="#F5DEB3" />
<rect x="10" y="7" width="1" height="1" fill="#F5DEB3" />
<rect x="12" y="7" width="1" height="1" fill="#F5DEB3" />
<rect x="13" y="7" width="1" height="1" fill="#A0522D" />
<rect x="14" y="7" width="1" height="1" fill="#8B4513" />
<rect x="15" y="7" width="1" height="1" fill="#F5DEB3" />
<rect x="9" y="8" width="1" height="1" fill="#F5DEB3" />
<rect x="10" y="8" width="1" height="1" fill="#F4A460" />
<rect x="12" y="8" width="1" height="1" fill="#A0522D" />
<rect x="13" y="8" width="1" height="1" fill="#A0522D" />
<rect x="14" y="8" width="1" height="1" fill="#F5DEB3" />
<rect x="15" y="8" width="1" height="1" fill="#F4A460" />
<rect x="16" y="8" width="1" height="1" fill="#F5DEB3" />
<rect x="7" y="9" width="1" height="1" fill="#F5DEB3" />
<rect x="10" y="9" width="1" height="1" fill="#F4A460" />
<rect x="11" y="9" width="1" height="1" fill="#A0522D" />
<rect x="12" y="9" width="1" height="1" fill="#8B4513" />
<rect x="7" y="10" width="1" height="1" fill="#F4A460" />
<rect x="8" y="10" width="1" height="1" fill="#F5DEB3" />
<rect x="10" y="10" width="1" height="1" fill="#A0522D" />
<rect x="11" y="10" width="1" height="1" fill="#A0522D" />
<rect x="12" y="10" width="1" height="1" fill="#F5DEB3" />
<rect x="13" y="10" width="1" height="1" fill="#F5DEB3" />
<rect x="14" y="10" width="1" height="1" fill="#F5DEB3" />
<rect x="7" y="11" width="1" height="1" fill="#F5DEB3" />
<rect x="8" y="11" width="1" height="1" fill="#F5DEB3" />
<rect x="9" y="11" width="1" height="1" fill="#A0522D" />
<rect x="10" y="11" width="1" height="1" fill="#8B4513" />
<rect x="11" y="11" width="1" height="1" fill="#F5DEB3" />
<rect x="12" y="11" width="1" height="1" fill="#F5DEB3" />
<rect x="13" y="11" width="1" height="1" fill="#F4A460" />
<rect x="5" y="12" width="1" height="1" fill="#F5DEB3" />
<rect x="7" y="12" width="1" height="1" fill="#F5DEB3" />
<rect x="8" y="12" width="1" height="1" fill="#A0522D" />
<rect x="9" y="12" width="1" height="1" fill="#A0522D" />
<rect x="4" y="13" width="1" height="1" fill="#F5DEB3" />
<rect x="5" y="13" width="1" height="1" fill="#F5DEB3" />
<rect x="7" y="13" width="1" height="1" fill="#A0522D" />
<rect x="8" y="13" width="1" height="1" fill="#8B4513" />
<rect x="9" y="13" width="1" height="1" fill="#F5DEB3" />
<rect x="10" y="13" width="1" height="1" fill="#F5DEB3" />
<rect x="11" y="13" width="1" height="1" fill="#F5DEB3" />
<rect x="4" y="14" width="1" height="1" fill="#F5DEB3" />
<rect x="5" y="14" width="1" height="1" fill="#F4A460" />
<rect x="7" y="14" width="1" height="1" fill="#A0522D" />
<rect x="8" y="14" width="1" height="1" fill="#F5DEB3" />
<rect x="9" y="14" width="1" height="1" fill="#F5DEB3" />
<rect x="10" y="14" width="1" height="1" fill="#F4A460" />
<rect x="4" y="15" width="1" height="1" fill="#F5DEB3" />
<rect x="5" y="15" width="1" height="1" fill="#F5DEB3" />
<rect x="6" y="15" width="1" height="1" fill="#A0522D" />
<rect x="7" y="15" width="1" height="1" fill="#8B4513" />
<rect x="3" y="16" width="1" height="1" fill="#F5DEB3" />
<rect x="5" y="16" width="1" height="1" fill="#F5DEB3" />
<rect x="6" y="16" width="1" height="1" fill="#A0522D" />
<rect x="8" y="16" width="1" height="1" fill="#F5DEB3" />
<rect x="9" y="16" width="1" height="1" fill="#F5DEB3" />
<rect x="10" y="16" width="1" height="1" fill="#F5DEB3" />
<rect x="2" y="17" width="1" height="1" fill="#F5DEB3" />
<rect x="3" y="17" width="1" height="1" fill="#F5DEB3" />
<rect x="5" y="17" width="1" height="1" fill="#A0522D" />
<rect x="6" y="17" width="1" height="1" fill="#8B4513" />
<rect x="7" y="17" width="1" height="1" fill="#F5DEB3" />
<rect x="8" y="17" width="1" height="1" fill="#F5DEB3" />
<rect x="9" y="17" width="1" height="1" fill="#F4A460" />
<rect x="2" y="18" width="1" height="1" fill="#F5DEB3" />
<rect x="3" y="18" width="1" height="1" fill="#F4A460" />
<rect x="5" y="18" width="1" height="1" fill="#A0522D" />
<rect x="2" y="19" width="1" height="1" fill="#F5DEB3" />
<rect x="3" y="19" width="1" height="1" fill="#F5DEB3" />
<rect x="4" y="19" width="1" height="1" fill="#A0522D" />
<rect x="5" y="19" width="1" height="1" fill="#8B4513" />
<rect x="6" y="19" width="1" height="1" fill="#F5DEB3" />
<rect x="7" y="19" width="1" height="1" fill="#F5DEB3" />
<rect x="8" y="19" width="1" height="1" fill="#F5DEB3" />
<rect x="3" y="20" width="1" height="1" fill="#F5DEB3" />
<rect x="4" y="20" width="1" height="1" fill="#A0522D" />
<rect x="5" y="20" width="1" height="1" fill="#F5DEB3" />
<rect x="6" y="20" width="1" height="1" fill="#F5DEB3" />
<rect x="7" y="20" width="1" height="1" fill="#F4A460" />
<rect x="3" y="21" width="1" height="1" fill="#A0522D" />
<rect x="4" y="21" width="1" height="1" fill="#8B4513" />
<rect x="3" y="22" width="1" height="1" fill="#8B4513" />
<rect x="3" y="23" width="1" height="1" fill="#8B4513" />
</svg>