<?xml version="1.0" encoding="UTF-8" ?>
<svg version="1.1" width="24" height="24" xmlns="http://www.w3.org/2000/svg">
<rect x="8" y="1" width="1" height="1" fill="#778899" />
<rect x="9" y="1" width="1" height="1" fill="#778899" />
<rect x="10" y="1" width="1" height="1" fill="#708090" />
<rect x="11" y="1" width="1" height="1" fill="#778899" />
<rect x="12" y="1" width="1" height="1" fill="#708090" />
<rect x="13" y="1" width="1" height="1" fill="#708090" />
<rect x="14" y="1" width="1" height="1" fill="#708090" />
<rect x="15" y="1" width="1" height="1" fill="#708090" />
<rect x="9" y="2" width="1" height="1" fill="#DCDCDC" />
<rect x="10" y="2" width="1" height="1" fill="#DCDCDC" />
<rect x="11" y="2" width="1" height="1" fill="#DCDCDC" />
<rect x="12" y="2" width="1" height="1" fill="#DCDCDC" />
<rect x="13" y="2" width="1" height="1" fill="#DCDCDC" />
<rect x="14" y="2" width="1" height="1" fill="#C1C1C1" />
<rect x="9" y="3" width="1" height="1" fill="#DCDCDC" />
<rect x="10" y="3" width="1" height="1" fill="#F5FFFA" />
<rect x="11" y="3" width="1" height="1" fill="#DCDCDC" />
<rect x="12" y="3" width="1" height="1" fill="#DCDCDC" />
<rect x="13" y="3" width="1" height="1" fill="#DCDCDC" />
<rect x="14" y="3" width="1" height="1" fill="#C1C1C1" />
<rect x="9" y="4" width="1" height="1" fill="#DCDCDC" />
<rect x="10" y="4" width="1" height="1" fill="#F5FFFA" />
<rect x="11" y="4" width="1" height="1" fill="#DCDCDC" />
<rect x="12" y="4" width="1" height="1" fill="#DCDCDC" />
<rect x="13" y="4" width="1" height="1" fill="#DCDCDC" />
<rect x="14" y="4" width="1" height="1" fill="#C1C1C1" />
<rect x="9" y="5" width="1" height="1" fill="#DCDCDC" />
<rect x="10" y="5" width="1" height="1" fill="#F5FFFA" />
<rect x="11" y="5" width="1" height="1" fill="#DCDCDC" />
<rect x="12" y="5" width="1" height="1" fill="#DCDCDC" />
<rect x="13" y="5" width="1" height="1" fill="#DCDCDC" />
<rect x="14" y="5" width="1" height="1" fill="#C1C1C1" />
<rect x="8" y="6" width="1" height="1" fill="#DCDCDC" />
<rect x="9" y="6" width="1" height="1" fill="#DCDCDC" />
<rect x="10" y="6" width="1" height="1" fill="#F5FFFA" />
<rect x="11" y="6" width="1" height="1" fill="#DCDCDC" />
<rect x="12" y="6" width="1" height="1" fill="#DCDCDC" />
<rect x="13" y="6" width="1" height="1" fill="#DCDCDC" />
<rect x="14" y="6" width="1" height="1" fill="#C1C1C1" />
<rect x="15" y="6" width="1" height="1" fill="#C1C1C1" />
<rect x="8" y="7" width="1" height="1" fill="#DCDCDC" />
<rect x="9" y="7" width="1" height="1" fill="#F5FFFA" />
<rect x="10" y="7" width="1" height="1" fill="#DCDCDC" />
<rect x="11" y="7" width="1" height="1" fill="#DCDCDC" />
<rect x="12" y="7" width="1" height="1" fill="#DCDCDC" />
<rect x="13" y="7" width="1" height="1" fill="#DCDCDC" />
<rect x="14" y="7" width="1" height="1" fill="#DCDCDC" />
<rect x="15" y="7" width="1" height="1" fill="#C1C1C1" />
<rect x="7" y="8" width="1" height="1" fill="#DCDCDC" />
<rect x="8" y="8" width="1" height="1" fill="#DCDCDC" />
<rect x="9" y="8" width="1" height="1" fill="#F5FFFA" />
<rect x="10" y="8" width="1" height="1" fill="#DCDCDC" />
<rect x="11" y="8" width="1" height="1" fill="#DCDCDC" />
<rect x="12" y="8" width="1" height="1" fill="#DCDCDC" />
<rect x="13" y="8" width="1" height="1" fill="#DCDCDC" />
<rect x="14" y="8" width="1" height="1" fill="#DCDCDC" />
<rect x="15" y="8" width="1" height="1" fill="#C1C1C1" />
<rect x="16" y="8" width="1" height="1" fill="#C1C1C1" />
<rect x="7" y="9" width="1" height="1" fill="#DCDCDC" />
<rect x="8" y="9" width="1" height="1" fill="#F5FFFA" />
<rect x="9" y="9" width="1" height="1" fill="#DCDCDC" />
<rect x="10" y="9" width="1" height="1" fill="#DCDCDC" />
<rect x="11" y="9" width="1" height="1" fill="#DCDCDC" />
<rect x="12" y="9" width="1" height="1" fill="#DCDCDC" />
<rect x="13" y="9" width="1" height="1" fill="#DCDCDC" />
<rect x="14" y="9" width="1" height="1" fill="#DCDCDC" />
<rect x="15" y="9" width="1" height="1" fill="#DCDCDC" />
<rect x="16" y="9" width="1" height="1" fill="#C1C1C1" />
<rect x="6" y="10" width="1" height="1" fill="#DCDCDC" />
<rect x="7" y="10" width="1" height="1" fill="#DCDCDC" />
<rect x="8" y="10" width="1" height="1" fill="#F5FFFA" />
<rect x="9" y="10" width="1" height="1" fill="#DCDCDC" />
<rect x="10" y="10" width="1" height="1" fill="#DCDCDC" />
<rect x="11" y="10" width="1" height="1" fill="#DCDCDC" />
<rect x="12" y="10" width="1" height="1" fill="#DCDCDC" />
<rect x="13" y="10" width="1" height="1" fill="#DCDCDC" />
<rect x="14" y="10" width="1" height="1" fill="#DCDCDC" />
<rect x="15" y="10" width="1" height="1" fill="#DCDCDC" />
<rect x="16" y="10" width="1" height="1" fill="#C1C1C1" />
<rect x="17" y="10" width="1" height="1" fill="#C1C1C1" />
<rect x="6" y="11" width="1" height="1" fill="#DCDCDC" />
<rect x="7" y="11" width="1" height="1" fill="#DCDCDC" />
<rect x="8" y="11" width="1" height="1" fill="#DCDCDC" />
<rect x="9" y="11" width="1" height="1" fill="#DCDCDC" />
<rect x="10" y="11" width="1" height="1" fill="#DCDCDC" />
<rect x="11" y="11" width="1" height="1" fill="#DCDCDC" />
<rect x="12" y="11" width="1" height="1" fill="#DCDCDC" />
<rect x="13" y="11" width="1" height="1" fill="#DCDCDC" />
<rect x="14" y="11" width="1" height="1" fill="#DCDCDC" />
<rect x="15" y="11" width="1" height="1" fill="#DCDCDC" />
<rect x="16" y="11" width="1" height="1" fill="#DCDCDC" />
<rect x="17" y="11" width="1" height="1" fill="#C1C1C1" />
<rect x="6" y="12" width="1" height="1" fill="#DCDCDC" />
<rect x="7" y="12" width="1" height="1" fill="#DCDCDC" />
<rect x="8" y="12" width="1" height="1" fill="#DCDCDC" />
<rect x="9" y="12" width="1" height="1" fill="#DCDCDC" />
<rect x="10" y="12" width="1" height="1" fill="#DCDCDC" />
<rect x="11" y="12" width="1" height="1" fill="#DCDCDC" />
<rect x="12" y="12" width="1" height="1" fill="#DCDCDC" />
<rect x="13" y="12" width="1" height="1" fill="#DCDCDC" />
<rect x="14" y="12" width="1" height="1" fill="#FFF8DC" />
<rect x="15" y="12" width="1" height="1" fill="#FFF8DC" />
<rect x="16" y="12" width="1" height="1" fill="#FFF8DC" />
<rect x="17" y="12" width="1" height="1" fill="#FFE4B5" />
<rect x="6" y="13" width="1" height="1" fill="#DCDCDC" />
<rect x="7" y="13" width="1" height="1" fill="#DCDCDC" />
<rect x="8" y="13" width="1" height="1" fill="#DCDCDC" />
<rect x="9" y="13" width="1" height="1" fill="#DCDCDC" />
<rect x="10" y="13" width="1" height="1" fill="#FFF8DC" />
<rect x="11" y="13" width="1" height="1" fill="#FFF8DC" />
<rect x="12" y="13" width="1" height="1" fill="#FFF8DC" />
<rect x="13" y="13" width="1" height="1" fill="#FFF8DC" />
<rect x="14" y="13" width="1" height="1" fill="#FFF8DC" />
<rect x="15" y="13" width="1" height="1" fill="#FFF8DC" />
<rect x="16" y="13" width="1" height="1" fill="#FFF8DC" />
<rect x="17" y="13" width="1" height="1" fill="#FFE4B5" />
<rect x="6" y="14" width="1" height="1" fill="#FFF8DC" />
<rect x="7" y="14" width="1" height="1" fill="#FFF8DC" />
<rect x="8" y="14" width="1" height="1" fill="#FFF8DC" />
<rect x="9" y="14" width="1" height="1" fill="#FFF8DC" />
<rect x="10" y="14" width="1" height="1" fill="#FFF8DC" />
<rect x="11" y="14" width="1" height="1" fill="#FFF8DC" />
<rect x="12" y="14" width="1" height="1" fill="#FFF8DC" />
<rect x="13" y="14" width="1" height="1" fill="#FFF8DC" />
<rect x="14" y="14" width="1" height="1" fill="#FFF8DC" />
<rect x="15" y="14" width="1" height="1" fill="#FFF8DC" />
<rect x="16" y="14" width="1" height="1" fill="#FFF8DC" />
<rect x="17" y="14" width="1" height="1" fill="#FFE4B5" />
<rect x="6" y="15" width="1" height="1" fill="#FFF8DC" />
<rect x="7" y="15" width="1" height="1" fill="#FFFAF0" />
<rect x="8" y="15" width="1" height="1" fill="#FFF8DC" />
<rect x="9" y="15" width="1" height="1" fill="#FFF8DC" />
<rect x="10" y="15" width="1" height="1" fill="#FFF8DC" />
<rect x="11" y="15" width="1" height="1" fill="#FFF8DC" />
<rect x="12" y="15" width="1" height="1" fill="#FFF8DC" />
<rect x="13" y="15" width="1" height="1" fill="#FFF8DC" />
<rect x="14" y="15" width="1" height="1" fill="#FFF8DC" />
<rect x="15" y="15" width="1" height="1" fill="#FFF8DC" />
<rect x="16" y="15" width="1" height="1" fill="#FFF8DC" />
<rect x="17" y="15" width="1" height="1" fill="#FFE4B5" />
<rect x="6" y="16" width="1" height="1" fill="#FFF8DC" />
<rect x="7" y="16" width="1" height="1" fill="#FFFAF0" />
<rect x="8" y="16" width="1" height="1" fill="#FFF8DC" />
<rect x="9" y="16" width="1" height="1" fill="#FFF8DC" />
<rect x="10" y="16" width="1" height="1" fill="#FFF8DC" />
<rect x="11" y="16" width="1" height="1" fill="#FFF8DC" />
<rect x="12" y="16" width="1" height="1" fill="#FFF8DC" />
<rect x="13" y="16" width="1" height="1" fill="#FFF8DC" />
<rect x="14" y="16" width="1" height="1" fill="#FFF8DC" />
<rect x="15" y="16" width="1" height="1" fill="#FFF8DC" />
<rect x="16" y="16" width="1" height="1" fill="#FFF8DC" />
<rect x="17" y="16" width="1" height="1" fill="#FFE4B5" />
<rect x="6" y="17" width="1" height="1" fill="#FFF8DC" />
<rect x="7" y="17" width="1" height="1" fill="#FFFAF0" />
<rect x="8" y="17" width="1" height="1" fill="#FFF8DC" />
<rect x="9" y="17" width="1" height="1" fill="#FFF8DC" />
<rect x="10" y="17" width="1" height="1" fill="#FFF8DC" />
<rect x="11" y="17" width="1" height="1" fill="#FFF8DC" />
<rect x="12" y="17" width="1" height="1" fill="#FFF8DC" />
<rect x="13" y="17" width="1" height="1" fill="#FFF8DC" />
<rect x="14" y="17" width="1" height="1" fill="#FFF8DC" />
<rect x="15" y="17" width="1" height="1" fill="#FFF8DC" />
<rect x="16" y="17" width="1" height="1" fill="#FFF8DC" />
<rect x="17" y="17" width="1" height="1" fill="#FFE4B5" />
<rect x="6" y="18" width="1" height="1" fill="#FFF8DC" />
<rect x="7" y="18" width="1" height="1" fill="#FFFAF0" />
<rect x="8" y="18" width="1" height="1" fill="#FFF8DC" />
<rect x="9" y="18" width="1" height="1" fill="#FFF8DC" />
<rect x="10" y="18" width="1" height="1" fill="#FFF8DC" />
<rect x="11" y="18" width="1" height="1" fill="#FFF8DC" />
<rect x="12" y="18" width="1" height="1" fill="#FFF8DC" />
<rect x="13" y="18" width="1" height="1" fill="#FFF8DC" />
<rect x="14" y="18" width="1" height="1" fill="#FFF8DC" />
<rect x="15" y="18" width="1" height="1" fill="#FFF8DC" />
<rect x="16" y="18" width="1" height="1" fill="#FFF8DC" />
<rect x="17" y="18" width="1" height="1" fill="#FFE4B5" />
<rect x="6" y="19" width="1" height="1" fill="#FFF8DC" />
<rect x="7" y="19" width="1" height="1" fill="#FFFAF0" />
<rect x="8" y="19" width="1" height="1" fill="#FFF8DC" />
<rect x="9" y="19" width="1" height="1" fill="#FFF8DC" />
<rect x="10" y="19" width="1" height="1" fill="#FFF8DC" />
<rect x="11" y="19" width="1" height="1" fill="#FFF8DC" />
<rect x="12" y="19" width="1" height="1" fill="#FFF8DC" />
<rect x="13" y="19" width="1" height="1" fill="#FFF8DC" />
<rect x="14" y="19" width="1" height="1" fill="#FFF8DC" />
<rect x="15" y="19" width="1" height="1" fill="#FFF8DC" />
<rect x="16" y="19" width="1" height="1" fill="#FFF8DC" />
<rect x="17" y="19" width="1" height="1" fill="#FFE4B5" />
<rect x="6" y="20" width="1" height="1" fill="#FFF8DC" />
<rect x="7" y="20" width="1" height="1" fill="#FFF8DC" />
<rect x="8" y="20" width="1" height="1" fill="#FFF8DC" />
<rect x="9" y="20" width="1" height="1" fill="#FFF8DC" />
<rect x="10" y="20" width="1" height="1" fill="#FFF8DC" />
<rect x="11" y="20" width="1" height="1" fill="#FFF8DC" />
<rect x="12" y="20" width="1" height="1" fill="#FFF8DC" />
<rect x="13" y="20" width="1" height="1" fill="#FFF8DC" />
<rect x="14" y="20" width="1" height="1" fill="#FFF8DC" />
<rect x="15" y="20" width="1" height="1" fill="#FFF8DC" />
<rect x="16" y="20" width="1" height="1" fill="#FFF8DC" />
<rect x="17" y="20" width="1" height="1" fill="#FFE4B5" />
<rect x="7" y="21" width="1" height="1" fill="#FFF8DC" />
<rect x="8" y="21" width="1" height="1" fill="#FFF8DC" />
<rect x="9" y="21" width="1" height="1" fill="#FFF8DC" />
<rect x="10" y="21" width="1" height="1" fill="#FFF8DC" />
<rect x="11" y="21" width="1" height="1" fill="#FFF8DC" />
<rect x="12" y="21" width="1" height="1" fill="#FFF8DC" />
<rect x="13" y="21" width="1" height="1" fill="#FFF8DC" />
<rect x="14" y="21" width="1" height="1" fill="#FFF8DC" />
<rect x="15" y="21" width="1" height="1" fill="#FFF8DC" />
<rect x="16" y="21" width="1" height="1" fill="#FFE4B5" />
<rect x="8" y="22" width="1" height="1" fill="#FFF8DC" />
<rect x="9" y="22" width="1" height="1" fill="#FFF8DC" />
<rect x="10" y="22" width="1" height="1" fill="#FFF8DC" />
<rect x="11" y="22" width="1" height="1" fill="#FFF8DC" />
<rect x="12" y="22" width="1" height="1" fill="#FFF8DC" />
<rect x="13" y="22" width="1" height="1" fill="#FFF8DC" />
<rect x="14" y="22" width="1" height="1" fill="#FFF8DC" />
<rect x="15" y="22" width="1" height="1" fill="#FFE4B5" />
</svg>